<svg xmlns="http://www.w3.org/2000/svg" width="25" height="25" viewBox="0 0 25 25" fill="none">
  <mask id="mask0_23_11696" style="mask-type:luminance" maskUnits="userSpaceOnUse" x="1" y="1" width="23" height="23">
    <path fill-rule="evenodd" clip-rule="evenodd" d="M1.35156 1.5625H23.4758V23.6424H1.35156V1.5625Z" fill="white"/>
  </mask>
  <g mask="url(#mask0_23_11696)">
    <path fill-rule="evenodd" clip-rule="evenodd" d="M23.4758 12.5804C23.4758 14.6158 22.9448 16.4742 21.9714 18.1114C21.6837 18.6129 21.3593 19.0849 20.9905 19.5348C18.9772 22.0496 15.8724 23.6425 12.4137 23.6425C8.95493 23.6425 5.85016 22.0496 3.83685 19.5348C3.46812 19.0849 3.14363 18.6129 2.85601 18.1114C1.88254 16.4742 1.35156 14.6158 1.35156 12.5804C1.35156 6.51833 6.30739 1.5625 12.4137 1.5625C18.52 1.5625 23.4758 6.51833 23.4758 12.5804Z" fill="#D2D4D9"/>
  </g>
  <path fill-rule="evenodd" clip-rule="evenodd" d="M20.9906 19.5347C18.9773 22.0495 15.8725 23.6425 12.4137 23.6425C8.95499 23.6425 5.85022 22.0495 3.83691 19.5347C5.86497 17.0568 8.95499 15.4639 12.4137 15.4639C15.8725 15.4639 18.9625 17.0568 20.9906 19.5347Z" fill="#777F8C"/>
  <path fill-rule="evenodd" clip-rule="evenodd" d="M16.3125 10.0822C16.3125 12.2378 14.5647 13.9856 12.4091 13.9856C10.2527 13.9856 8.50488 12.2378 8.50488 10.0822C8.50488 7.92579 10.2527 6.17871 12.4091 6.17871C14.5647 6.17871 16.3125 7.92579 16.3125 10.0822Z" fill="white"/>
</svg>
