<svg xmlns="http://www.w3.org/2000/svg" width="25" height="25" viewBox="0 0 25 25" fill="none">
  <mask id="mask0_23_6584" style="mask-type:luminance" maskUnits="userSpaceOnUse" x="1" y="1" width="23" height="23">
    <path fill-rule="evenodd" clip-rule="evenodd" d="M1.35107 1.5625H23.4753V23.6424H1.35107V1.5625Z" fill="white"/>
  </mask>
  <g mask="url(#mask0_23_6584)">
    <path fill-rule="evenodd" clip-rule="evenodd" d="M23.4753 12.5804C23.4753 14.6158 22.9443 16.4742 21.9709 18.1114C21.6833 18.6129 21.3588 19.0849 20.99 19.5348C18.9767 22.0496 15.872 23.6425 12.4132 23.6425C8.95444 23.6425 5.84967 22.0496 3.83636 19.5348C3.46763 19.0849 3.14314 18.6129 2.85552 18.1114C1.88206 16.4742 1.35107 14.6158 1.35107 12.5804C1.35107 6.51833 6.30691 1.5625 12.4132 1.5625C18.5195 1.5625 23.4753 6.51833 23.4753 12.5804Z" fill="#27ac27"/>
  </g>
  <path fill-rule="evenodd" clip-rule="evenodd" d="M20.9896 19.5347C18.9763 22.0495 15.8715 23.6425 12.4128 23.6425C8.95401 23.6425 5.84924 22.0495 3.83594 19.5347C5.86399 17.0568 8.95401 15.4639 12.4128 15.4639C15.8715 15.4639 18.9615 17.0568 20.9896 19.5347Z" fill="green"/>
  <path fill-rule="evenodd" clip-rule="evenodd" d="M16.3125 10.0822C16.3125 12.2378 14.5647 13.9856 12.4091 13.9856C10.2527 13.9856 8.50488 12.2378 8.50488 10.0822C8.50488 7.92579 10.2527 6.17871 12.4091 6.17871C14.5647 6.17871 16.3125 7.92579 16.3125 10.0822Z" fill="white"/>
</svg>