<svg xmlns="http://www.w3.org/2000/svg" width="51" height="51" viewBox="0 0 51 51" fill="none">
  <mask id="mask0_23_11589" style="mask-type:luminance" maskUnits="userSpaceOnUse" x="2" y="2" width="48" height="47">
    <path fill-rule="evenodd" clip-rule="evenodd" d="M2.3291 2.21387H49.1011V48.6421H2.3291V2.21387Z" fill="white"/>
  </mask>
  <g mask="url(#mask0_23_11589)">
    <path d="M45.9206 37.012C45.4685 37.8029 44.9696 38.5627 44.4083 39.2916C40.1676 44.9827 33.3389 48.6424 25.7151 48.6424C18.0913 48.6424 11.2626 44.9827 7.02189 39.2916C6.46063 38.5627 5.96173 37.8029 5.5096 37.012C3.45163 33.5694 2.3291 29.6616 2.3291 25.3816C2.3291 12.6347 12.806 2.21387 25.7151 2.21387C38.6242 2.21387 49.1011 12.6347 49.1011 25.3816C49.1011 29.6616 47.9786 33.5694 45.9206 37.012Z" fill="#FF9E00"/>
  </g>
  <path d="M44.4089 39.292C40.1682 44.9831 33.3395 48.6428 25.7157 48.6428C18.0918 48.6428 11.2631 44.9831 7.02246 39.292C11.2943 33.6784 18.0762 30.0342 25.7157 30.0342C33.3551 30.0342 40.137 33.6784 44.4089 39.292Z" fill="#FFD899"/>
  <path fill-rule="evenodd" clip-rule="evenodd" d="M25.5443 12.5322C27.1272 12.5322 28.4103 13.8154 28.4103 15.3982V22.5631H35.5752C37.158 22.5631 38.4412 23.8463 38.4412 25.4291C38.4412 27.0119 37.158 28.2951 35.5752 28.2951H28.4103V35.46C28.4103 37.0428 27.1272 38.326 25.5443 38.326C23.9615 38.326 22.6784 37.0428 22.6784 35.46V28.2951H15.5134C13.9306 28.2951 12.6475 27.0119 12.6475 25.4291C12.6475 23.8463 13.9306 22.5631 15.5134 22.5631H22.6784V15.3982C22.6784 13.8154 23.9615 12.5322 25.5443 12.5322Z" fill="white"/>
</svg>