<svg width="50" height="50" viewBox="0 0 50 50" fill="none" xmlns="http://www.w3.org/2000/svg">
<g id="master icon / apple">
<g id="apple">
<path id="Path" fill-rule="evenodd" clip-rule="evenodd" d="M39.0006 32.7949C38.1899 34.594 37.8028 35.3969 36.7588 36.9864C35.3044 39.2061 33.2522 41.9707 30.7093 41.9942C28.4503 42.0153 27.8698 40.5212 24.8033 40.5392C21.7368 40.5571 21.0977 42.0208 18.8388 41.9997C16.2958 41.977 14.3529 39.4805 12.8969 37.2593C8.82695 31.0514 8.40169 23.7669 10.9119 19.8944C12.6956 17.1407 15.5109 15.5316 18.1568 15.5316C20.8511 15.5316 22.5451 17.0117 24.7736 17.0117C26.935 17.0117 28.2514 15.5293 31.367 15.5293C33.7219 15.5293 36.2173 16.8139 37.9956 19.0336C32.1692 22.2321 33.1164 30.5659 39.0006 32.7949Z" fill="white"/>
<path id="Path_2" fill-rule="evenodd" clip-rule="evenodd" d="M29.7808 11.7145C30.9556 10.2317 31.8462 8.13974 31.5223 6C29.6035 6.12901 27.3608 7.32987 26.0508 8.89466C24.8615 10.3145 23.8794 12.4208 24.2615 14.4682C26.3544 14.5327 28.5218 13.3023 29.7808 11.7145Z" fill="white"/>
</g>
</g>
</svg>
