<svg width="24" height="24" viewBox="0 0 24 24" fill="none" xmlns="http://www.w3.org/2000/svg">
<g id="bxs-lock 1">
<path id="Subtract" fill-rule="evenodd" clip-rule="evenodd" d="M7 7C7 4.243 9.243 2 12 2C14.757 2 17 4.243 17 7V10H18C19.104 10 20 10.896 20 12V20C20 21.104 19.104 22 18 22H15H13H11H8H6C4.896 22 4 21.104 4 20V12C4 10.896 4.896 10 6 10H7V7ZM12 4C10.346 4 9 5.346 9 7V10H15V7C15 5.346 13.654 4 12 4ZM13.1613 12H10.8387L10.9677 14.6667L8.64516 13.7333L8 15.8667L10.4516 16.5333L8.77419 18.6667L10.5806 20L12 17.7333L13.4194 20L15.2258 18.6667L13.5484 16.5333L16 15.8667L15.3548 13.7333L13.0323 14.6667L13.1613 12Z" fill="#777F8C"/>
</g>
</svg>
