<svg xmlns="http://www.w3.org/2000/svg" width="24" height="24" viewBox="0 0 24 24" fill="none">
  <path fill-rule="evenodd" clip-rule="evenodd" d="M2.93425 5H21.0658C21.5817 5 22 5.42014 22 5.93842V18.607C22 19.1253 21.5817 19.5455 21.0658 19.5455H2.93425C2.41828 19.5455 2 19.1253 2 18.607V5.93842C2 5.42014 2.41828 5 2.93425 5ZM15.604 12.2727C15.604 14.281 13.9832 15.9091 11.9838 15.9091C9.98446 15.9091 8.36364 14.281 8.36364 12.2727C8.36364 10.2644 9.98446 8.63636 11.9838 8.63636C13.9832 8.63636 15.604 10.2644 15.604 12.2727ZM11.9838 14.0909C12.9835 14.0909 13.7939 13.2769 13.7939 12.2727C13.7939 11.2686 12.9835 10.4545 11.9838 10.4545C10.9841 10.4545 10.1737 11.2686 10.1737 12.2727C10.1737 13.2769 10.9841 14.0909 11.9838 14.0909Z" fill="#2F8A00"/>
</svg>