<svg xmlns="http://www.w3.org/2000/svg" width="32" height="32" viewBox="0 0 32 32" fill="none">
  <path fill-rule="evenodd" clip-rule="evenodd" d="M4.57129 12C4.57129 9.79086 6.36215 8 8.57129 8H23.4284C25.6376 8 27.4284 9.79086 27.4284 12V20C27.4284 22.2091 25.6376 24 23.4284 24H8.57129C6.36215 24 4.57129 22.2091 4.57129 20V12ZM20.5712 15.9998C20.5712 18.5245 18.5245 20.5712 15.9998 20.5712C13.4751 20.5712 11.4284 18.5245 11.4284 15.9998C11.4284 13.4751 13.4751 11.4284 15.9998 11.4284C18.5245 11.4284 20.5712 13.4751 20.5712 15.9998ZM16.0007 18.2863C14.7384 18.2863 13.715 17.2629 13.715 16.0006C13.715 14.7382 14.7384 13.7148 16.0007 13.7148C17.2631 13.7148 18.2865 14.7382 18.2865 16.0006C18.2865 17.2629 17.2631 18.2863 16.0007 18.2863Z" fill="#A5A9B2"/>
</svg>