<svg width="68" height="68" viewBox="0 0 68 68" fill="none" xmlns="http://www.w3.org/2000/svg">
<g id="check-circle 1" clip-path="url(#clip0_23_1705)">
<g id="Icons">
<g id="Rounded">
<g id="Action">
<g id="Round / Action / check circle">
<g id="Group">
<path id="&#240;&#159;&#148;&#185;Icon Color" fill-rule="evenodd" clip-rule="evenodd" d="M34 0C15.232 0 0 15.232 0 34C0 52.768 15.232 68 34 68C52.768 68 68 52.768 68 34C68 15.232 52.768 0 34 0ZM24.786 48.586L12.58 36.38C11.254 35.054 11.254 32.912 12.58 31.586C13.906 30.26 16.048 30.26 17.374 31.586L27.2 41.378L50.592 17.986C51.918 16.66 54.06 16.66 55.386 17.986C56.712 19.312 56.712 21.454 55.386 22.78L29.58 48.586C28.288 49.912 26.112 49.912 24.786 48.586Z" fill="black"/>
</g>
</g>
</g>
</g>
</g>
</g>
<defs>
<clipPath id="clip0_23_1705">
<rect width="68" height="68" fill="white"/>
</clipPath>
</defs>
</svg>
