<svg xmlns="http://www.w3.org/2000/svg" width="60" height="60" viewBox="0 0 60 60" fill="none">
  <g filter="url(#filter0_d_23_1004)">
    <mask id="mask0_23_1004" style="mask-type:luminance" maskUnits="userSpaceOnUse" x="10" y="0" width="40" height="40">
      <path fill-rule="evenodd" clip-rule="evenodd" d="M10 0H50V39.9997H10V0Z" fill="white"/>
    </mask>
    <g mask="url(#mask0_23_1004)">
      <path d="M47.28 29.98C46.8933 30.6613 46.4667 31.316 45.9867 31.9439C42.36 36.847 36.52 40 30 40C23.48 40 17.64 36.847 14.0133 31.9439C13.5333 31.316 13.1067 30.6613 12.72 29.98C10.96 27.014 10 23.6473 10 19.9599C10 8.97796 18.96 0 30 0C41.04 0 50 8.97796 50 19.9599C50 23.6473 49.04 27.014 47.28 29.98Z" fill="#FF3E3E"/>
    </g>
    <path d="M45.9875 31.9437C42.3608 36.8469 36.5208 39.9998 30.0008 39.9998C23.4808 39.9998 17.6408 36.8469 14.0142 31.9437C17.6675 27.1074 23.4675 23.9678 30.0008 23.9678C36.5342 23.9678 42.3342 27.1074 45.9875 31.9437Z" fill="#FFB9B9"/>
    <path fill-rule="evenodd" clip-rule="evenodd" d="M37.6521 12.1429C38.6093 13.1072 38.6093 14.6705 37.6521 15.6348L33.3193 19.9997L37.6521 24.3645C38.6093 25.3288 38.6093 26.8922 37.6521 27.8564C36.6949 28.8207 35.143 28.8207 34.1858 27.8564L29.853 23.4916L25.5202 27.8564C24.563 28.8207 23.0111 28.8207 22.0539 27.8564C21.0968 26.8922 21.0968 25.3288 22.0539 24.3645L26.3868 19.9997L22.0539 15.6348C21.0968 14.6705 21.0968 13.1072 22.0539 12.1429C23.0111 11.1786 24.563 11.1786 25.5202 12.1429L29.853 16.5078L34.1858 12.1429C35.143 11.1786 36.6949 11.1786 37.6521 12.1429Z" fill="white"/>
  </g>
  <defs>
    <filter id="filter0_d_23_1004" x="0" y="0" width="60" height="60" filterUnits="userSpaceOnUse" color-interpolation-filters="sRGB">
      <feFlood flood-opacity="0" result="BackgroundImageFix"/>
      <feColorMatrix in="SourceAlpha" type="matrix" values="0 0 0 0 0 0 0 0 0 0 0 0 0 0 0 0 0 0 127 0" result="hardAlpha"/>
      <feOffset dy="10"/>
      <feGaussianBlur stdDeviation="5"/>
      <feColorMatrix type="matrix" values="0 0 0 0 0.113514 0 0 0 0 0.160738 0 0 0 0 0.247582 0 0 0 0.15 0"/>
      <feBlend mode="normal" in2="BackgroundImageFix" result="effect1_dropShadow_23_1004"/>
      <feBlend mode="normal" in="SourceGraphic" in2="effect1_dropShadow_23_1004" result="shape"/>
    </filter>
  </defs>
</svg>