<svg xmlns="http://www.w3.org/2000/svg" width="29" height="29" viewBox="0 0 29 29" fill="none">
  <g clip-path="url(#clip0_23_11616)">
    <mask id="mask0_23_11616" style="mask-type:luminance" maskUnits="userSpaceOnUse" x="0" y="0" width="27" height="27">
      <path fill-rule="evenodd" clip-rule="evenodd" d="M0.947266 0.751953H26.9733V26.7258H0.947266V0.751953Z" fill="white"/>
    </mask>
    <g mask="url(#mask0_23_11616)">
      <path fill-rule="evenodd" clip-rule="evenodd" d="M26.9733 13.7129C26.9733 16.1073 26.3487 18.2935 25.2035 20.2194C24.8652 20.8093 24.4835 21.3646 24.0497 21.8938C21.6813 24.8521 18.029 26.7259 13.9603 26.7259C9.89154 26.7259 6.23922 24.8521 3.87086 21.8938C3.43709 21.3646 3.05537 20.8093 2.71704 20.2194C1.57189 18.2935 0.947266 16.1073 0.947266 13.7129C0.947266 6.58178 6.7771 0.751953 13.9603 0.751953C21.1435 0.751953 26.9733 6.58178 26.9733 13.7129Z" fill="#27ac27"/>
    </g>
    <path fill-rule="evenodd" clip-rule="evenodd" d="M24.049 21.8933C21.6806 24.8516 18.0283 26.7254 13.9595 26.7254C9.8908 26.7254 6.23849 24.8516 3.87012 21.8933C6.25584 18.9784 9.8908 17.1045 13.9595 17.1045C18.0283 17.1045 21.6632 18.9784 24.049 21.8933Z" fill="#green"/>
    <path fill-rule="evenodd" clip-rule="evenodd" d="M18.5469 10.7735C18.5469 13.3093 16.4908 15.3654 13.955 15.3654C11.4184 15.3654 9.3623 13.3093 9.3623 10.7735C9.3623 8.23683 11.4184 6.18164 13.955 6.18164C16.4908 6.18164 18.5469 8.23683 18.5469 10.7735Z" fill="white"/>
    <mask id="mask1_23_11616" style="mask-type:luminance" maskUnits="userSpaceOnUse" x="14" y="14" width="15" height="14">
      <path fill-rule="evenodd" clip-rule="evenodd" d="M28.0781 14.3037H14.4993V27.8553H28.0781V14.3037Z" fill="white"/>
    </mask>
    <g mask="url(#mask1_23_11616)">
      <path fill-rule="evenodd" clip-rule="evenodd" d="M14.4993 21.066C14.4993 22.3152 14.8252 23.4558 15.4227 24.4607C15.5992 24.7684 15.7984 25.0581 16.0247 25.3342C17.2604 26.8777 19.1659 27.8554 21.2887 27.8554C23.4115 27.8554 25.3171 26.8777 26.5528 25.3342C26.7791 25.0581 26.9782 24.7684 27.1548 24.4607C27.7522 23.4558 28.0781 22.3152 28.0781 21.066C28.0781 17.3454 25.0365 14.3037 21.2887 14.3037C17.541 14.3037 14.4993 17.3454 14.4993 21.066Z" fill="#FF9E00"/>
    </g>
    <path fill-rule="evenodd" clip-rule="evenodd" d="M16.0246 25.3344C17.2603 26.8779 19.1659 27.8556 21.2887 27.8556C23.4115 27.8556 25.3171 26.8779 26.5527 25.3344C25.308 23.8136 23.4115 22.8359 21.2887 22.8359C19.1659 22.8359 17.2694 23.8136 16.0246 25.3344Z" fill="#FFD899"/>
    <path d="M23.1913 21.6482C23.019 21.4908 22.7531 21.499 22.5907 21.6668L21.5576 22.734C21.3089 22.6863 20.809 22.5297 20.2944 22.0141C19.7797 21.4968 19.6239 20.9934 19.5777 20.7454L20.6393 19.7073C20.8068 19.5443 20.8146 19.2776 20.6579 19.1041L19.0626 17.3423C18.9059 17.1685 18.6396 17.152 18.4621 17.3046L17.5253 18.1116C17.4506 18.187 17.4061 18.2868 17.4001 18.393C17.3936 18.5014 17.2701 21.0693 19.2526 23.0613C20.9821 24.798 23.1485 24.925 23.7452 24.925C23.8324 24.925 23.8859 24.9224 23.9002 24.9216C24.0059 24.9155 24.1052 24.8708 24.1799 24.7954L24.9829 23.854C25.1353 23.6758 25.1181 23.4087 24.9458 23.2508L23.1913 21.6482Z" fill="white"/>
  </g>
  <defs>
    <clipPath id="clip0_23_11616">
      <rect width="28.2609" height="28.2609" fill="white" transform="translate(0.381836 0.186523)"/>
    </clipPath>
  </defs>
</svg>