<svg xmlns="http://www.w3.org/2000/svg" 
xmlns:xlink="http://www.w3.org/1999/xlink" version="1.1" 
xml:space="preserve" viewBox="0 0 702.52 536.23">
<desc>Created with Fabric.js 3.5.0</desc><defs></defs><rect x="0" y="0" width="0px" height="0px" fill="none"></rect>
<g transform="matrix(0.6366 0 0 0.6366 583.7303 503.0007)" id="242012"><g style="" vector-effect="non-scaling-stroke">		
		
		<g transform="matrix(1 0 0 1 -0.004 0.0006)" id="OBJECTS"><linearGradient id="SVGID_3" gradientUnits="userSpaceOnUse" gradientTransform="matrix(1 0 0 1 0 0)" x1="183.7809" y1="156.6241" x2="316.8476" y2="156.6241"><stop offset="0%" style="stop-color:rgb(39,172,39);stop-opacity: 1"></stop><stop offset="100%" style="stop-color:rgb(0,128,0);stop-opacity: 1"></stop></linearGradient><path style="stroke: none; stroke-width: 1; stroke-dasharray: none; stroke-linecap: butt; stroke-dashoffset: 0; stroke-linejoin: miter; stroke-miterlimit: 4; is-custom-font: none; font-file-url: none; fill: url(#SVGID_3); fill-rule: nonzero; opacity: 1;" transform=" translate(-249.471, -156.6256)" d="M 346.427 132.746 c -0.002 -0.049 -0.004 -0.098 -0.008 -0.147 c -0.007 -0.148 -0.015 -0.296 -0.038 -0.442 c -0.139 -0.924 -0.56 -1.798 -1.196 -2.483 c -0.328 -0.354 -0.495 -0.471 -0.79 -0.668 c -0.069 -0.049 -0.14 -0.096 -0.212 -0.141 c -0.028 -0.019 -0.057 -0.039 -0.088 -0.059 l -41.161 -23.764 c -0.21 -0.101 -0.413 -0.218 -0.63 -0.303 c -0.581 -0.228 -0.747 -0.218 -1.359 -0.31 c -0.21 0 -0.419 0.001 -0.628 0.011 c -0.053 -0.004 -0.107 -0.007 -0.16 -0.011 H 199.401 c -0.723 0.049 -0.914 0.025 -1.617 0.222 c -0.527 0.147 -1.03 0.366 -1.497 0.65 c -2.123 1.291 -3.253 3.941 -2.754 6.341 c 0.509 2.449 2.624 4.385 5.052 4.718 c 0.27 0.037 0.544 0.037 0.816 0.056 h 27.838 c 0.276 0.026 0.723 0.067 0.999 0.093 c 0.205 0.038 0.41 0.073 0.611 0.129 c 2.099 0.588 3.8 2.382 4.251 4.552 c 0.55 2.646 -0.875 5.585 -3.48 6.717 c -0.501 0.218 -1.03 0.366 -1.572 0.44 c -0.27 0.037 -0.544 0.037 -0.816 0.056 h -68.739 c -0.723 0.049 -0.914 0.025 -1.617 0.222 c -0.526 0.147 -1.03 0.366 -1.497 0.65 c -2.123 1.291 -3.253 3.941 -2.754 6.341 c 0.509 2.449 2.624 4.385 5.052 4.718 c 0.27 0.037 0.544 0.037 0.816 0.056 h 82.757 c 0.276 0.026 0.723 0.067 0.999 0.093 c 0.205 0.038 0.41 0.073 0.611 0.129 c 2.098 0.588 3.8 2.382 4.251 4.552 c 0.55 2.646 -0.875 5.585 -3.48 6.717 c -0.501 0.218 -1.03 0.366 -1.572 0.441 c -0.27 0.037 -0.544 0.037 -0.816 0.056 h -12.295 c -0.723 0.049 -0.914 0.025 -1.617 0.222 c -0.526 0.147 -1.03 0.366 -1.497 0.65 c -2.123 1.291 -3.252 3.942 -2.754 6.341 c 0.509 2.449 2.624 4.385 5.052 4.718 c 0.27 0.037 0.544 0.037 0.816 0.056 h 30.34 c 2.665 0 4.825 -2.16 4.825 -4.825 v -17.018 c 0 -0.698 0.756 -1.135 1.361 -0.786 l 21.236 12.261 c 5.703 3.292 9.216 9.377 9.216 15.962 v 10.726 c 0 6.83 -7.393 11.098 -13.308 7.683 l -17.434 -10.087 c -0.595 -0.344 -1.031 -0.918 -1.169 -1.591 c -0.45 -2.194 -2.396 -3.83 -4.727 -3.83 H 183.44 c -0.723 0.049 -0.914 0.025 -1.617 0.222 c -0.527 0.147 -1.03 0.366 -1.497 0.65 c -2.123 1.291 -3.252 3.941 -2.754 6.341 c 0.509 2.449 2.624 4.385 5.052 4.718 c 0.27 0.037 0.544 0.037 0.816 0.056 h 51.167 c 0.276 0.026 0.723 0.067 0.999 0.093 c 0.205 0.038 0.41 0.073 0.611 0.129 c 2.098 0.588 3.8 2.382 4.251 4.552 c 0.55 2.646 -0.875 5.585 -3.48 6.717 c -0.501 0.218 -1.03 0.366 -1.572 0.441 c -0.27 0.037 -0.544 0.037 -0.816 0.056 h -15.096 c -0.723 0.049 -0.914 0.025 -1.617 0.222 c -0.526 0.147 -1.03 0.366 -1.497 0.65 c -2.123 1.291 -3.253 3.941 -2.754 6.341 c 0.509 2.449 2.624 4.385 5.052 4.718 c 0.27 0.037 0.544 0.037 0.816 0.056 h 80.799 c 0.032 -0.002 0.063 -0.004 0.095 -0.005 c 0.072 0.003 0.143 0.006 0.215 0.005 c 0.112 0.001 0.224 -0.004 0.335 -0.012 c 0.124 -0.009 0.247 -0.024 0.369 -0.044 c 0.338 -0.052 0.671 -0.141 0.99 -0.267 c 0.116 -0.045 0.227 -0.1 0.338 -0.156 c 0.015 -0.006 0.031 -0.011 0.045 -0.018 c 0.361 -0.157 0.698 -0.35 1.011 -0.571 l 40.396 -23.322 c 0.192 -0.131 0.395 -0.248 0.577 -0.394 c 0.73 -0.582 1.277 -1.384 1.552 -2.277 c 0.184 -0.596 0.161 -0.761 0.208 -1.378 v -47.529 C 346.431 132.818 346.429 132.782 346.427 132.746 z M 302.189 115.405 l 29.009 16.748 c 0.539 0.311 0.539 1.09 0 1.401 l -5.692 3.286 c -0.974 0.563 -2.175 0.563 -3.149 0 l -28.871 -16.669 c -0.608 -0.351 -0.608 -1.228 0 -1.579 l 5.522 -3.188 C 299.992 114.837 301.205 114.837 302.189 115.405 z M 299.024 150.312 l -28.871 -16.668 c -0.608 -0.351 -0.608 -1.228 0 -1.579 l 5.523 -3.188 c 0.984 -0.568 2.197 -0.568 3.181 0 l 29.008 16.748 c 0.539 0.311 0.539 1.09 0 1.401 l -5.692 3.286 C 301.199 150.874 299.998 150.874 299.024 150.312 z M 337.085 176.441 c 0 0.769 -0.41 1.48 -1.077 1.865 l -27.506 15.881 c -1.435 0.829 -3.23 -0.207 -3.23 -1.865 V 160.56 c 0 -0.769 0.41 -1.48 1.077 -1.865 l 7.408 -4.277 c 0.004 5.509 0.011 13.357 0.016 17.291 c 0.001 1.093 1.182 1.774 2.132 1.233 l 11.546 -6.577 c 0.713 -0.406 1.154 -1.164 1.154 -1.985 v -18.535 l 5.25 -3.031 c 1.435 -0.829 3.23 0.207 3.23 1.865 V 176.441 z" stroke-linecap="round"></path></g></g></g>
		<g transform="matrix(1 0 0 1 314.8979 495.1201)" style="" id="653064">		<path xml:space="preserve" font-family="Amaranth" font-size="105" font-style="normal" font-weight="bold" style="stroke: none; stroke-width: 1; stroke-dasharray: none; stroke-linecap: butt; stroke-dashoffset: 0; stroke-linejoin: miter; stroke-miterlimit: 4; is-custom-font: none; font-file-url: none; fill: rgb(65,172,65); fill-rule: nonzero; opacity: 1; white-space: pre;" d="M-192.68 32.98L-192.68-38.10Q-191.94-38.10-189.16-38.15Q-186.38-38.21-183.02-38.21Q-179.66-38.21-176.30-38.26Q-172.94-38.31-170.84-38.31L-170.84-38.31Q-157.40-38.31-150.68-32.59Q-143.96-26.87-143.96-16.68L-143.96-16.68Q-143.96-5.45-151.51 0.17Q-159.07 5.79-172.20 5.79L-172.20 5.79L-175.35 5.79L-175.35 32.98L-192.68 32.98ZM-175.35-26.66L-175.35-5.66L-170.94-5.66Q-167.37-5.66-164.75-8.12Q-162.12-10.59-162.12-15.84L-162.12-15.84Q-162.12-20.25-164.27-23.51Q-166.43-26.76-171.47-26.87L-171.47-26.87Q-172.83-26.87-173.78-26.81Q-174.72-26.76-175.35-26.66L-175.35-26.66ZM-110.88-4.61Q-112.04-4.61-113.40-3.98Q-114.77-3.35-116.03-2.03Q-117.29-0.72-118.13 1.33Q-118.97 3.37-118.97 6.21L-118.97 6.21L-118.97 32.98L-135.56 32.98L-135.56 5.68Q-135.56-0.62-136.45-4.76Q-137.34-8.91-138.50-11.54L-138.50-11.54Q-139.75-14.48-141.33-16.26L-141.33-16.26L-128.00-20.46Q-127.16-19.41-126.21-18.05L-126.21-18.05Q-125.48-16.89-124.64-15.11Q-123.80-13.32-123.27-11.01L-123.27-11.01Q-120.65-16.05-117.02-18.26Q-113.40-20.46-108.47-20.46L-108.47-20.46Q-106.26-20.46-104.53-20.09Q-102.80-19.73-101.64-19.31L-101.64-19.31L-105.95-3.45Q-106.68-3.87-107.89-4.24Q-109.10-4.61-110.88-4.61L-110.88-4.61ZM-82.53 33.40Q-88.52 33.40-92.19 30.31Q-95.87 27.21-95.87 21.54L-95.87 21.54L-95.87-19.73L-79.28-19.73L-79.28 16.81Q-79.28 19.23-78.54 20.07Q-77.81 20.91-76.34 20.91L-76.34 20.91Q-75.50 20.91-74.66 20.75Q-73.82 20.59-73.61 20.49L-73.61 20.49L-72.14 30.88Q-72.24 30.99-73.08 31.36Q-73.92 31.72-75.29 32.20Q-76.65 32.67-78.54 33.04Q-80.43 33.40-82.53 33.40L-82.53 33.40ZM-87.36-45.03Q-82.95-45.03-80.64-42.41Q-78.33-39.78-78.33-35.79L-78.33-35.79Q-78.33-31.70-80.69-28.97Q-83.06-26.24-87.78-26.24L-87.78-26.24Q-92.19-26.24-94.55-28.91Q-96.92-31.59-96.92-35.27L-96.92-35.27Q-96.92-39.47-94.50-42.25Q-92.09-45.03-87.36-45.03L-87.36-45.03ZM6.82 32.98L-9.77 32.98L-9.77 0.22Q-9.77-3.45-10.40-5.71Q-11.03-7.97-13.23-7.97L-13.23-7.97Q-15.75-7.97-17.96-4.34Q-20.16-0.72-20.16 5.26L-20.16 5.26L-20.16 32.98L-36.86 32.98L-36.86 0.22Q-36.86-3.45-37.43-5.71Q-38.01-7.97-40.32-7.97L-40.32-7.97Q-42.95-7.97-45.10-4.24Q-47.25-0.51-47.25 5.79L-47.25 5.79L-47.25 32.98L-63.84 32.98L-63.84 5.68Q-63.84-0.62-64.73-4.76Q-65.63-8.91-66.78-11.54L-66.78-11.54Q-68.04-14.48-69.62-16.26L-69.62-16.26L-56.28-20.46Q-55.44-19.41-54.50-18.05L-54.50-18.05Q-53.66-16.89-52.87-15.05Q-52.08-13.22-51.45-10.91L-51.45-10.91Q-48.93-15.84-44.47-18.15Q-40.01-20.46-34.55-20.46L-34.55-20.46Q-29.93-20.46-27.04-18.62Q-24.15-16.79-22.37-13.32L-22.37-13.32Q-19.64-17.10-15.86-18.78Q-12.08-20.46-7.46-20.46L-7.46-20.46Q-3.36-20.46-0.63-19.15Q2.10-17.84 3.73-15.47Q5.35-13.11 6.09-9.70Q6.82-6.29 6.82-2.19L6.82-2.19L6.82 32.98ZM15.22 8.10Q15.22 1.06 17.27-4.34Q19.32-9.75 22.94-13.37Q26.56-17.00 31.39-18.89Q36.22-20.78 41.89-20.78L41.89-20.78Q46.83-20.78 50.29-19.57Q53.76-18.36 55.96-16.21Q58.17-14.06 59.22-11.17Q60.27-8.28 60.27-4.92L60.27-4.92Q60.27-1.14 58.38 2.22Q56.49 5.58 52.97 8.15Q49.45 10.72 44.47 12.40Q39.48 14.08 33.18 14.61L33.18 14.61Q33.91 17.76 35.86 19.70Q37.80 21.64 41.79 21.64L41.79 21.64Q44.10 21.64 46.72 21.12Q49.35 20.59 51.55 19.96L51.55 19.96Q54.18 19.23 56.70 18.28L56.70 18.28L59.85 29.20Q57.01 30.57 53.65 31.62L53.65 31.62Q50.82 32.46 47.09 33.19Q43.36 33.93 39.16 33.93L39.16 33.93Q32.76 33.93 28.19 32.04Q23.62 30.15 20.74 26.79Q17.85 23.43 16.54 18.65Q15.22 13.87 15.22 8.10L15.22 8.10ZM39.79-8.91Q37.80-8.91 36.38-7.76Q34.96-6.60 34.12-4.71Q33.28-2.82 32.86-0.51Q32.44 1.80 32.34 4.00L32.34 4.00Q35.49 3.90 37.64 3.06Q39.79 2.22 41.16 0.96Q42.52-0.30 43.15-1.77Q43.78-3.24 43.78-4.50L43.78-4.50Q43.78-6.50 42.68-7.70Q41.58-8.91 39.79-8.91L39.79-8.91ZM95.97 32.98L95.97-38.10Q96.70-38.10 99.38-38.15Q102.06-38.21 105.52-38.21Q108.99-38.21 112.72-38.26Q116.44-38.31 119.38-38.31L119.38-38.31Q128.31-38.31 134.77-35.63Q141.22-32.96 145.42-28.13Q149.62-23.30 151.62-16.63Q153.61-9.96 153.61-1.98L153.61-1.98Q153.61 6.21 151.57 12.72Q149.52 19.23 145.27 23.80Q141.01 28.36 134.50 30.78Q127.99 33.19 119.07 33.19L119.07 33.19Q116.02 33.19 113.50 33.14Q110.98 33.09 108.36 33.09Q105.73 33.09 102.79 33.04Q99.85 32.98 95.97 32.98L95.97 32.98ZM118.65-26.13Q116.86-26.13 115.92-26.08Q114.97-26.03 113.29-26.03L113.29-26.03L113.29 20.91Q114.66 21.01 115.71 21.01Q116.76 21.01 118.65 21.01L118.65 21.01Q123.27 21.01 126.37 19.44Q129.46 17.86 131.35 14.92Q133.24 11.98 134.08 7.73Q134.92 3.48 134.92-1.77L134.92-1.77Q134.92-26.13 118.65-26.13L118.65-26.13ZM189.63-4.61Q188.47-4.61 187.11-3.98Q185.74-3.35 184.48-2.03Q183.22-0.72 182.38 1.33Q181.54 3.37 181.54 6.21L181.54 6.21L181.54 32.98L164.95 32.98L164.95 5.68Q164.95-0.62 164.06-4.76Q163.17-8.91 162.01-11.54L162.01-11.54Q160.75-14.48 159.18-16.26L159.18-16.26L172.51-20.46Q173.35-19.41 174.30-18.05L174.30-18.05Q175.03-16.89 175.87-15.11Q176.71-13.32 177.24-11.01L177.24-11.01Q179.86-16.05 183.49-18.26Q187.11-20.46 192.04-20.46L192.04-20.46Q194.25-20.46 195.98-20.09Q197.71-19.73 198.87-19.31L198.87-19.31L194.56-3.45Q193.83-3.87 192.62-4.24Q191.41-4.61 189.63-4.61L189.63-4.61Z"></path></g><g transform="matrix(1 0 0 1 680.7423 489.0925)" style="" id="138926">		<path xml:space="preserve" font-family="Amaranth" font-size="88" font-style="normal" font-weight="bold" style="stroke: none; stroke-width: 1; stroke-dasharray: none; stroke-linecap: butt; stroke-dashoffset: 0; stroke-linejoin: miter; stroke-miterlimit: 4; is-custom-font: none; font-file-url: none; fill: rgb(39,172,39); fill-rule: nonzero; opacity: 1; white-space: pre;" d="M-3.92 44.72L-17.82 47.09L-17.82 4.76Q-17.82-0.52-18.57-3.99Q-19.32-7.47-20.28-9.67L-20.28-9.67Q-21.34-12.13-22.66-13.63L-22.66-13.63L-11.48-17.15Q-10.43-16.09-9.55-14.60L-9.55-14.60Q-8.84-13.36-8.14-11.47Q-7.44-9.58-7.08-7.12L-7.08-7.12Q-5.41-12.13-2.46-14.64Q0.48-17.15 5.24-17.15L5.24-17.15Q9.37-17.15 12.50-15.56Q15.62-13.98 17.69-11.12Q19.76-8.26 20.77-4.21Q21.78-0.16 21.78 4.85L21.78 4.85Q21.78 9.78 20.20 14.05Q18.61 18.32 15.75 21.44Q12.89 24.56 9.02 26.37Q5.15 28.17 0.66 28.17L0.66 28.17Q-1.80 28.17-3.92 27.64L-3.92 27.64L-3.92 44.72ZM2.51-6.94Q1.19-6.94 0-5.84Q-1.19-4.74-2.07-2.94Q-2.95-1.13-3.43 1.29Q-3.92 3.71-3.92 6.35L-3.92 6.35L-3.92 17.35Q-3.30 17.52-2.24 17.74Q-1.19 17.96-0.31 17.96L-0.31 17.96Q1.80 17.96 3.21 17.04Q4.62 16.12 5.46 14.49Q6.29 12.86 6.64 10.62Q7.00 8.37 7.00 5.73L7.00 5.73Q7.00 3.27 6.91 0.98Q6.82-1.31 6.34-3.07Q5.85-4.83 4.97-5.88Q4.09-6.94 2.51-6.94L2.51-6.94Z">
  </path></g></svg>