<svg xmlns="http://www.w3.org/2000/svg" xmlns:xlink="http://www.w3.org/1999/xlink" version="1.1" x="0px" y="0px" 
    style="enable-background:new 0 0 0 500;" xml:space="preserve" viewBox="152.51 104.43 193.93 104.39"><g id="OBJECTS">	<g>		<g>				
    	</g>		<g>			<g>				<path style="fill:green;" d="M192.6,164.309c0.27,0.037,0.544,0.037,0.816,0.056h15.3c0.272-0.018,0.546-0.018,0.816-0.056      c0.541-0.074,1.07-0.223,1.572-0.441c2.605-1.132,4.03-4.071,3.48-6.717c-0.451-2.171-2.153-3.964-4.251-4.552      c-0.262-0.074-0.534-0.111-0.801-0.167c-0.272-0.019-0.544-0.037-0.816-0.056h-15.3c-0.723,0.049-0.914,0.025-1.617,0.222      c-0.526,0.147-1.03,0.366-1.497,0.65c-2.123,1.291-3.253,3.942-2.754,6.341C188.057,162.04,190.172,163.975,192.6,164.309z"></path>				
        <path style="fill:green;" d="M157.676,116.36c0.27,0.037,0.544,0.037,0.816,0.056h15.3c0.272-0.019,0.546-0.019,0.816-0.056      c0.541-0.074,1.07-0.222,1.572-0.44c2.605-1.132,4.03-4.071,3.48-6.717c-0.451-2.171-2.153-3.964-4.251-4.552      c-0.262-0.074-0.534-0.111-0.801-0.167c-0.272-0.019-0.544-0.037-0.816-0.056h-15.3c-0.723,0.049-0.914,0.025-1.617,0.222      c-0.526,0.147-1.03,0.366-1.497,0.65c-2.123,1.291-3.253,3.941-2.754,6.341C153.133,114.091,155.248,116.026,157.676,116.36z"></path>				
        <path style="fill:green;" d="M171.105,152.6c-0.262-0.074-0.534-0.111-0.801-0.167c-0.272-0.019-0.544-0.037-0.816-0.056      h-8.271c-0.723,0.049-0.914,0.025-1.617,0.222c-0.526,0.147-1.03,0.366-1.497,0.65c-2.123,1.291-3.253,3.942-2.754,6.341      c0.509,2.449,2.624,4.385,5.052,4.718c0.27,0.037,0.544,0.037,0.816,0.056h8.271c0.272-0.018,0.546-0.018,0.816-0.056      c0.541-0.074,1.07-0.223,1.572-0.441c2.605-1.132,4.03-4.071,3.481-6.717C174.905,154.981,173.204,153.188,171.105,152.6z"></path>				
        <path style="fill:green;" d="M201.019,197.055c-0.262-0.074-0.534-0.111-0.801-0.167c-0.272-0.019-0.544-0.037-0.816-0.056      h-8.271c-0.723,0.05-0.914,0.025-1.617,0.222c-0.527,0.147-1.03,0.366-1.497,0.65c-2.123,1.291-3.253,3.941-2.754,6.341      c0.509,2.449,2.624,4.385,5.052,4.718c0.27,0.037,0.544,0.037,0.816,0.056h8.271c0.272-0.019,0.546-0.019,0.816-0.056      c0.541-0.074,1.07-0.223,1.572-0.44c2.605-1.132,4.03-4.071,3.48-6.717C204.82,199.437,203.118,197.643,201.019,197.055z"></path>									
        <linearGradient id="SVGID_00000008833622328959117840000007276246354061386150_" gradientUnits="userSpaceOnUse" x1="183.7809" y1="156.6241" x2="316.8476" y2="156.6241">					
        <stop offset="0" style="stop-color:#27ac27"></stop>					
        <stop offset="1" style="stop-color:green"></stop>				</linearGradient>	
        <path style="fill:url(#SVGID_00000008833622328959117840000007276246354061386150_);" d="M346.427,132.746      c-0.002-0.049-0.004-0.098-0.008-0.147c-0.007-0.148-0.015-0.296-0.038-0.442c-0.139-0.924-0.56-1.798-1.196-2.483      c-0.328-0.354-0.495-0.471-0.79-0.668c-0.069-0.049-0.14-0.096-0.212-0.141c-0.028-0.019-0.057-0.039-0.088-0.059      l-41.161-23.764c-0.21-0.101-0.413-0.218-0.63-0.303c-0.581-0.228-0.747-0.218-1.359-0.31c-0.21,0-0.419,0.001-0.628,0.011      c-0.053-0.004-0.107-0.007-0.16-0.011H199.401c-0.723,0.049-0.914,0.025-1.617,0.222c-0.527,0.147-1.03,0.366-1.497,0.65      c-2.123,1.291-3.253,3.941-2.754,6.341c0.509,2.449,2.624,4.385,5.052,4.718c0.27,0.037,0.544,0.037,0.816,0.056h27.838      c0.276,0.026,0.723,0.067,0.999,0.093c0.205,0.038,0.41,0.073,0.611,0.129c2.099,0.588,3.8,2.382,4.251,4.552      c0.55,2.646-0.875,5.585-3.48,6.717c-0.501,0.218-1.03,0.366-1.572,0.44c-0.27,0.037-0.544,0.037-0.816,0.056h-68.739      c-0.723,0.049-0.914,0.025-1.617,0.222c-0.526,0.147-1.03,0.366-1.497,0.65c-2.123,1.291-3.253,3.941-2.754,6.341      c0.509,2.449,2.624,4.385,5.052,4.718c0.27,0.037,0.544,0.037,0.816,0.056h82.757c0.276,0.026,0.723,0.067,0.999,0.093      c0.205,0.038,0.41,0.073,0.611,0.129c2.098,0.588,3.8,2.382,4.251,4.552c0.55,2.646-0.875,5.585-3.48,6.717      c-0.501,0.218-1.03,0.366-1.572,0.441c-0.27,0.037-0.544,0.037-0.816,0.056h-12.295c-0.723,0.049-0.914,0.025-1.617,0.222      c-0.526,0.147-1.03,0.366-1.497,0.65c-2.123,1.291-3.252,3.942-2.754,6.341c0.509,2.449,2.624,4.385,5.052,4.718      c0.27,0.037,0.544,0.037,0.816,0.056h30.34c2.665,0,4.825-2.16,4.825-4.825v-17.018c0-0.698,0.756-1.135,1.361-0.786      l21.236,12.261c5.703,3.292,9.216,9.377,9.216,15.962v10.726c0,6.83-7.393,11.098-13.308,7.683l-17.434-10.087      c-0.595-0.344-1.031-0.918-1.169-1.591c-0.45-2.194-2.396-3.83-4.727-3.83H183.44c-0.723,0.049-0.914,0.025-1.617,0.222      c-0.527,0.147-1.03,0.366-1.497,0.65c-2.123,1.291-3.252,3.941-2.754,6.341c0.509,2.449,2.624,4.385,5.052,4.718      c0.27,0.037,0.544,0.037,0.816,0.056h51.167c0.276,0.026,0.723,0.067,0.999,0.093c0.205,0.038,0.41,0.073,0.611,0.129      c2.098,0.588,3.8,2.382,4.251,4.552c0.55,2.646-0.875,5.585-3.48,6.717c-0.501,0.218-1.03,0.366-1.572,0.441      c-0.27,0.037-0.544,0.037-0.816,0.056h-15.096c-0.723,0.049-0.914,0.025-1.617,0.222c-0.526,0.147-1.03,0.366-1.497,0.65      c-2.123,1.291-3.253,3.941-2.754,6.341c0.509,2.449,2.624,4.385,5.052,4.718c0.27,0.037,0.544,0.037,0.816,0.056h80.799      c0.032-0.002,0.063-0.004,0.095-0.005c0.072,0.003,0.143,0.006,0.215,0.005c0.112,0.001,0.224-0.004,0.335-0.012      c0.124-0.009,0.247-0.024,0.369-0.044c0.338-0.052,0.671-0.141,0.99-0.267c0.116-0.045,0.227-0.1,0.338-0.156      c0.015-0.006,0.031-0.011,0.045-0.018c0.361-0.157,0.698-0.35,1.011-0.571l40.396-23.322c0.192-0.131,0.395-0.248,0.577-0.394      c0.73-0.582,1.277-1.384,1.552-2.277c0.184-0.596,0.161-0.761,0.208-1.378v-47.529      C346.431,132.818,346.429,132.782,346.427,132.746z M302.189,115.405l29.009,16.748c0.539,0.311,0.539,1.09,0,1.401      l-5.692,3.286c-0.974,0.563-2.175,0.563-3.149,0l-28.871-16.669c-0.608-0.351-0.608-1.228,0-1.579l5.522-3.188      C299.992,114.837,301.205,114.837,302.189,115.405z M299.024,150.312l-28.871-16.668c-0.608-0.351-0.608-1.228,0-1.579      l5.523-3.188c0.984-0.568,2.197-0.568,3.181,0l29.008,16.748c0.539,0.311,0.539,1.09,0,1.401l-5.692,3.286      C301.199,150.874,299.998,150.874,299.024,150.312z M337.085,176.441c0,0.769-0.41,1.48-1.077,1.865l-27.506,15.881      c-1.435,0.829-3.23-0.207-3.23-1.865V160.56c0-0.769,0.41-1.48,1.077-1.865l7.408-4.277c0.004,5.509,0.011,13.357,0.016,17.291      c0.001,1.093,1.182,1.774,2.132,1.233l11.546-6.577c0.713-0.406,1.154-1.164,1.154-1.985v-18.535l5.25-3.031      c1.435-0.829,3.23,0.207,3.23,1.865V176.441z"></path>															</g>								</g>	</g></g></svg>