<svg xmlns="http://www.w3.org/2000/svg" width="333" height="145" viewBox="0 0 333 145" fill="none">
  <path opacity="0.12" fill-rule="evenodd" clip-rule="evenodd" d="M0 0L98.9889 94.0121L95.0013 97.9541V114.762H131.816L138.085 108.809V73.9269H120.22L118.797 77.7133L36.9552 0H21.1955L118.797 92.6767V81.5159H130.116V110.997H99.0674V100.25H110.765L5.1864 0H0ZM78.0319 0L98.9889 19.9033L95.0013 23.8453V40.6536H131.816L138.085 34.6999V0H120.152L118.797 3.60452L115.001 0H99.2426L118.797 18.5679V7.40704H130.116V36.8886H99.0674V26.1408H110.765L83.2346 0H78.0319ZM163.605 0L293.619 123.477L289.631 127.419V144.227H326.446L332.715 138.274V103.392H314.85L313.427 107.178L200.555 0H184.794L313.427 122.142V110.981H324.746V140.462H293.697V129.715H305.395L168.785 0H163.605Z" fill="#27ac27"/>
</svg>