<svg width="36" height="36" viewBox="0 0 36 36" fill="none" xmlns="http://www.w3.org/2000/svg">
<g id="icon / facebook">
<rect width="36" height="36" rx="10" fill="#F1F5FB"/>
<path id="Vector" d="M18 6C11.3729 6 6 11.4054 6 18.0724C6 24.0972 10.3876 29.0909 16.1254 30V21.5629H13.0771V18.0724H16.1254V15.4126C16.1254 12.3845 17.9172 10.7148 20.6571 10.7148C21.97 10.7148 23.3453 10.9502 23.3453 10.9502V13.9191H21.8284C20.3402 13.9191 19.8746 14.8512 19.8746 15.8062V18.07H23.2001L22.6685 21.5605H19.8746V29.9976C25.6124 29.0933 30 24.0984 30 18.0724C30 11.4054 24.6271 6 18 6Z" fill="#4A5466"/>
</g>
</svg>
