<svg xmlns="http://www.w3.org/2000/svg" width="244" height="161" viewBox="0 0 244 161" fill="none">
  <path fill-rule="evenodd" clip-rule="evenodd" d="M205.588 15.6545V0H238.089L243.624 5.54502V38.0324H227.852L226.596 34.5059L100.96 160.36H87.0454L226.595 20.5696V30.9644H236.588V3.50651H209.177V13.5166H219.504L72.9113 160.36H68.3438L209.108 19.3259L205.588 15.6545ZM32.6238 160.36L113.847 78.9957L115.103 82.5222H130.875V50.0348L125.341 44.4898H92.8391V60.1443L96.3596 63.8157L0 160.36H4.57692L106.756 58.0065H96.4289V47.9964H123.84V75.4542H113.847V65.0595L18.7105 160.36H32.6238ZM164.809 160.36L196.224 128.891L197.48 132.417H213.252V99.93L207.718 94.3849H175.216V110.039L178.737 113.711L132.177 160.36H136.764L189.133 107.902H178.806V97.8915H206.216V125.349H196.224V114.955L150.897 160.36H164.809Z" fill="white" fill-opacity="0.12"/>
</svg>