<svg width="166" height="37" viewBox="0 0 166 37" fill="none" xmlns="http://www.w3.org/2000/svg">
<g id="Group 1">
<path id="Vector" fill-rule="evenodd" clip-rule="evenodd" d="M11.839 16.488L8.91605 15.4212C7.68445 15.0916 7.39823 14.5539 7.39823 14.0161C7.41184 13.8385 7.46182 13.6655 7.54503 13.5079C7.62824 13.3504 7.74292 13.2116 7.88197 13.1002C8.02103 12.9888 8.18152 12.9071 8.35343 12.8603C8.52534 12.8134 8.70502 12.8024 8.88137 12.8279C9.49717 12.8279 10.5206 13.0707 10.9803 14.7186L16.5225 13.3656C15.8286 9.78358 12.7843 7.39844 8.59514 7.39844C4.25853 7.39844 0.537736 9.78357 0.537736 13.8947C0.537736 16.6528 2.05556 18.9945 5.59424 20.2261L8.71658 21.3797C9.82675 21.7093 10.0696 22.247 10.0696 22.7327C10.0696 23.6 9.24563 24.0944 8.26555 24.0944C7.63841 24.0919 7.03109 23.8744 6.54494 23.4783C6.05878 23.0821 5.72324 22.5311 5.59424 21.9174L0 23.4352C0.659165 27.6244 3.98967 29.6019 8.38699 29.6019C13.3567 29.6019 17.0602 27.052 17.0602 22.7327C17.0602 18.7517 13.8945 17.1471 11.839 16.488Z" fill="white"/>
<path id="Vector_2" fill-rule="evenodd" clip-rule="evenodd" d="M31.9264 7.39844C28.2229 7.39844 26.2107 9.45398 26.0459 9.82693H25.9246V7.81474H18.8125V37.0002H25.9246V27.1734H26.0459C26.2107 27.5463 28.2229 29.6019 31.9264 29.6019C36.74 29.6019 42.0828 25.9851 42.0828 18.5002C42.0828 11.0152 36.7574 7.39844 31.9264 7.39844ZM30.4606 23.2878C29.5022 23.3206 28.5559 23.0665 27.7429 22.5579C26.93 22.0493 26.2874 21.3095 25.8977 20.4333C25.5079 19.5571 25.3888 18.5845 25.5555 17.6401C25.7222 16.6958 26.1672 15.8228 26.8333 15.133C27.4995 14.4432 28.3565 13.9681 29.2945 13.7686C30.2324 13.5691 31.2086 13.6544 32.0978 14.0134C32.987 14.3723 33.7488 14.9888 34.2854 15.7835C34.822 16.5783 35.1089 17.5152 35.1095 18.4742C35.1469 19.1021 35.0536 19.7309 34.8354 20.3209C34.6172 20.9108 34.2789 21.4491 33.8419 21.9016C33.4049 22.354 32.8787 22.7109 32.2967 22.9495C31.7147 23.1881 31.0895 23.3033 30.4606 23.2878Z" fill="white"/>
<path id="Vector_3" fill-rule="evenodd" clip-rule="evenodd" d="M59.5684 9.82693H59.4469C59.2821 9.45398 57.27 7.39844 53.5232 7.39844C48.7616 7.39844 43.4102 11.0152 43.4102 18.5002C43.4102 25.9851 48.7616 29.6019 53.5232 29.6019C57.27 29.6019 59.2821 27.5463 59.4469 27.1734H59.5684V29.1943H66.6804V7.81474H59.5684V9.82693ZM55.0496 23.2878C53.8094 23.2351 52.6376 22.7054 51.7787 21.8093C50.9198 20.9131 50.4403 19.7198 50.4403 18.4785C50.4403 17.2372 50.9198 16.0439 51.7787 15.1477C52.6376 14.2516 53.8094 13.7218 55.0496 13.6692C56.2898 13.7218 57.4617 14.2516 58.3206 15.1477C59.1795 16.0439 59.659 17.2372 59.659 18.4785C59.659 19.7198 59.1795 20.9131 58.3206 21.8093C57.4617 22.7054 56.2898 23.2351 55.0496 23.2878Z" fill="white"/>
<path id="Vector_4" fill-rule="evenodd" clip-rule="evenodd" d="M78.8137 20.9719V13.4002H83.3325V7.8146H78.8137V2.3418H71.7017V7.8146H68.4492V13.4002H71.7017V22.0734C71.7017 27.4161 74.7807 29.4717 79.0566 29.4717C80.6612 29.4717 82.5953 29.1855 83.3932 28.2834V22.8973C82.7396 23.1065 82.0586 23.2176 81.3723 23.2269C79.3862 23.1922 78.8137 21.952 78.8137 20.9719Z" fill="white"/>
<path id="Vector_5" fill-rule="evenodd" clip-rule="evenodd" d="M95.545 13.7471C96.3596 13.7761 97.1561 13.996 97.8702 14.3892C98.5843 14.7824 99.1961 15.3379 99.6561 16.0108L104.791 12.6369C103.861 11.0132 102.513 9.66841 100.886 8.74251C99.2604 7.81661 97.4159 7.34348 95.545 7.37234C89.7859 7.37234 84.0703 11.1972 84.0703 18.4307C84.0703 25.6642 89.7859 29.5758 95.545 29.5758C97.4083 29.5869 99.2421 29.109 100.863 28.1897C102.484 27.2705 103.835 25.9421 104.782 24.3372L99.6474 20.9719C99.1864 21.6433 98.5743 22.197 97.8602 22.5887C97.1462 22.9804 96.3503 23.199 95.5363 23.227C94.3322 23.154 93.2013 22.6242 92.3745 21.7458C91.5476 20.8673 91.0872 19.7064 91.0872 18.5C91.0872 17.2937 91.5476 16.1328 92.3745 15.2544C93.2013 14.3759 94.3322 13.8462 95.5363 13.7732L95.545 13.7471Z" fill="white"/>
<path id="Vector_6" fill-rule="evenodd" clip-rule="evenodd" d="M119.759 7.39823C118.585 7.34939 117.417 7.59051 116.358 8.10028C115.299 8.61006 114.382 9.3728 113.688 10.3211V0H106.576V29.194H113.688V17.8408C113.688 15.6204 114.72 13.695 117.105 13.695C119.491 13.695 120.575 15.6204 120.575 17.8408V29.194H127.687V16.6092C127.695 10.0696 124.079 7.39823 119.759 7.39823Z" fill="white"/>
<path id="Vector_7" fill-rule="evenodd" clip-rule="evenodd" d="M161.661 1.1543H137.923V12.4295L140.525 15.0315L133.742 21.7879L140.525 28.5184H150.733L153.335 25.9771L154.254 28.5184H165.772V5.10066L161.661 1.1543ZM160.56 23.4792H153.266V15.9769L142.216 26.9051L137.012 21.8052L148.053 10.8944H140.507V3.67823H160.525L160.56 23.4792Z" fill="white"/>
</g>
</svg>
