<svg width="171" height="38" viewBox="0 0 171 38" fill="none" xmlns="http://www.w3.org/2000/svg">
<g id="Group 2">
<path id="Vector" fill-rule="evenodd" clip-rule="evenodd" d="M12.1589 16.9328L9.15702 15.8372C7.89214 15.4987 7.59818 14.9465 7.59818 14.3942C7.61216 14.2117 7.66349 14.0341 7.74895 13.8723C7.83441 13.7104 7.95218 13.5679 8.095 13.4535C8.23781 13.3391 8.40264 13.2552 8.5792 13.2071C8.75575 13.159 8.94029 13.1477 9.12141 13.1738C9.75385 13.1738 10.8049 13.4233 11.277 15.1157L16.969 13.7261C16.2564 10.0473 13.1298 7.59766 8.82744 7.59766C4.37362 7.59766 0.552269 10.0472 0.552269 14.2695C0.552269 17.1021 2.11112 19.5071 5.74543 20.772L8.95216 21.9568C10.0923 22.2952 10.3418 22.8475 10.3418 23.3463C10.3418 24.2371 9.49551 24.7449 8.48895 24.7449C7.84486 24.7423 7.22112 24.519 6.72183 24.1121C6.22253 23.7052 5.87792 23.1394 5.74543 22.509L0 24.0679C0.67698 28.3703 4.0975 30.4012 8.61367 30.4012C13.7177 30.4012 17.5213 27.7824 17.5213 23.3463C17.5213 19.2577 14.2701 17.6098 12.1589 16.9328Z" fill="#27ac27"/>
<path id="Vector_2" fill-rule="evenodd" clip-rule="evenodd" d="M32.7887 7.59766C28.9851 7.59766 26.9185 9.70875 26.7492 10.0918H26.6246V8.02521H19.3203V37.9994H26.6246V27.9071H26.7492C26.9185 28.2901 28.9851 30.4012 32.7887 30.4012C37.7324 30.4012 43.2195 26.6867 43.2195 18.9994C43.2195 11.3121 37.7502 7.59766 32.7887 7.59766ZM31.2833 23.9164C30.299 23.9502 29.3271 23.6891 28.4921 23.1668C27.6572 22.6445 26.9972 21.8847 26.597 20.9848C26.1967 20.085 26.0743 19.086 26.2455 18.1162C26.4167 17.1463 26.8737 16.2497 27.5579 15.5412C28.2421 14.8328 29.1223 14.3449 30.0856 14.14C31.0489 13.9351 32.0514 14.0227 32.9647 14.3914C33.8779 14.76 34.6603 15.3931 35.2114 16.2094C35.7625 17.0256 36.0572 17.9879 36.0577 18.9727C36.0962 19.6176 36.0003 20.2634 35.7762 20.8693C35.5521 21.4753 35.2047 22.0281 34.7559 22.4928C34.3071 22.9575 33.7667 23.324 33.169 23.569C32.5712 23.8141 31.9291 23.9324 31.2833 23.9164Z" fill="#27ac27"/>
<path id="Vector_3" fill-rule="evenodd" clip-rule="evenodd" d="M61.177 10.0918H61.0522C60.883 9.70875 58.8165 7.59766 54.9684 7.59766C50.0781 7.59766 44.582 11.3121 44.582 18.9994C44.582 26.6867 50.0781 30.4012 54.9684 30.4012C58.8165 30.4012 60.883 28.2901 61.0522 27.9071H61.177V29.9825H68.4812V8.02521H61.177V10.0918ZM56.5361 23.9164C55.2624 23.8623 54.0588 23.3183 53.1767 22.398C52.2946 21.4776 51.8021 20.252 51.8021 18.9772C51.8021 17.7023 52.2946 16.4768 53.1767 15.5564C54.0588 14.636 55.2624 14.092 56.5361 14.0379C57.8098 14.092 59.0133 14.636 59.8955 15.5564C60.7776 16.4768 61.27 17.7023 61.27 18.9772C61.27 20.252 60.7776 21.4776 59.8955 22.398C59.0133 23.3183 57.8098 23.8623 56.5361 23.9164Z" fill="#27ac27"/>
<path id="Vector_4" fill-rule="evenodd" clip-rule="evenodd" d="M80.9435 21.5399V13.7635H85.5844V8.02697H80.9435V2.40625H73.6392V8.02697H70.2988V13.7635H73.6392V22.6711C73.6392 28.1582 76.8014 30.2694 81.1929 30.2694C82.8408 30.2694 84.8272 29.9754 85.6467 29.049V23.5174C84.9754 23.7322 84.276 23.8463 83.5712 23.8559C81.5314 23.8202 80.9435 22.5464 80.9435 21.5399Z" fill="#27ac27"/>
<path id="Vector_5" fill-rule="evenodd" clip-rule="evenodd" d="M98.1266 14.1187C98.9633 14.1484 99.7813 14.3743 100.515 14.7781C101.248 15.1819 101.876 15.7524 102.349 16.4436L107.622 12.9785C106.667 11.3109 105.282 9.92972 103.612 8.9788C101.942 8.02787 100.048 7.54196 98.1266 7.57159C92.2119 7.57159 86.3418 11.4999 86.3418 18.9288C86.3418 26.3578 92.2119 30.3751 98.1266 30.3751C100.04 30.3866 101.924 29.8957 103.588 28.9516C105.253 28.0075 106.641 26.6432 107.613 24.9949L102.34 21.5388C101.866 22.2282 101.238 22.797 100.504 23.1992C99.7711 23.6015 98.9536 23.826 98.1177 23.8547C96.881 23.7798 95.7195 23.2357 94.8704 22.3335C94.0212 21.4313 93.5484 20.239 93.5484 19C93.5484 17.7611 94.0212 16.5688 94.8704 15.6666C95.7195 14.7645 96.881 14.2204 98.1177 14.1454L98.1266 14.1187Z" fill="#27ac27"/>
<path id="Vector_6" fill-rule="evenodd" clip-rule="evenodd" d="M122.997 7.59818C121.791 7.54803 120.591 7.79566 119.504 8.31921C118.416 8.84276 117.474 9.62612 116.761 10.6001V0H109.457V29.9831H116.761V18.323C116.761 16.0426 117.821 14.0651 120.271 14.0651C122.721 14.0651 123.834 16.0426 123.834 18.323V29.9831H131.138V17.0581C131.147 10.3417 127.433 7.59818 122.997 7.59818Z" fill="#27ac27"/>
<path id="Vector_7" fill-rule="evenodd" clip-rule="evenodd" d="M166.029 1.18555H141.649V12.7655L144.321 15.4378L137.355 22.3768L144.321 29.2892H154.805L157.478 26.6792L158.422 29.2892H170.251V5.23856L166.029 1.18555ZM164.898 24.1138H157.407V16.4087L146.058 27.6323L140.714 22.3946L152.053 11.1889H144.303V3.7777H164.862L164.898 24.1138Z" fill="#27ac27"/>
</g>
</svg>
