<svg width="24" height="24" viewBox="0 0 24 24" fill="none" xmlns="http://www.w3.org/2000/svg">
<g id="Group 314">
<g id="Layer 2">
<g id="Layer 1">
<path id="mail" d="M18.4407 3H5.55932C4.61561 3.0009 3.7108 3.37618 3.04349 4.04349C2.37618 4.7108 2.0009 5.61561 2 6.55932L2 16.7288C2.0009 17.6725 2.37618 18.5773 3.04349 19.2446C3.7108 19.912 4.61561 20.2872 5.55932 20.2881H18.4407C19.3844 20.2872 20.2892 19.912 20.9565 19.2446C21.6238 18.5773 21.9991 17.6725 22 16.7288V6.55932C21.9991 5.61561 21.6238 4.7108 20.9565 4.04349C20.2892 3.37618 19.3844 3.0009 18.4407 3V3ZM19.5356 8.8678L13.4542 12.2881C13.0092 12.5348 12.5088 12.6642 12 12.6642C11.4912 12.6642 10.9908 12.5348 10.5458 12.2881L4.46441 8.8678C4.35369 8.82147 4.25408 8.75215 4.17216 8.66443C4.09024 8.57671 4.02789 8.47259 3.98924 8.35897C3.95058 8.24534 3.9365 8.1248 3.94793 8.00533C3.95936 7.88586 3.99603 7.77017 4.05553 7.66593C4.11502 7.5617 4.19598 7.47129 4.29304 7.40069C4.3901 7.33009 4.50105 7.28091 4.61854 7.25641C4.73603 7.23191 4.85739 7.23265 4.97458 7.25857C5.09176 7.28449 5.20211 7.33501 5.29831 7.40678L11.3763 10.7966C11.5669 10.9032 11.7816 10.9592 12 10.9592C12.2184 10.9592 12.4331 10.9032 12.6237 10.7966L18.7017 7.40678C18.7987 7.34771 18.9066 7.30875 19.019 7.29221C19.1314 7.27568 19.2459 7.2819 19.3558 7.31051C19.4658 7.33912 19.5688 7.38953 19.6589 7.45876C19.7489 7.52798 19.8241 7.6146 19.8801 7.71348C19.936 7.81235 19.9714 7.92145 19.9844 8.0343C19.9973 8.14715 19.9874 8.26144 19.9552 8.37039C19.9231 8.47933 19.8694 8.58071 19.7973 8.66848C19.7252 8.75626 19.6362 8.82865 19.5356 8.88136V8.8678Z" fill="#777F8C"/>
</g>
</g>
</g>
</svg>
