<svg xmlns="http://www.w3.org/2000/svg" width="21" height="24" viewBox="0 0 21 24" fill="none">
  <path fill-rule="evenodd" clip-rule="evenodd" d="M11.0914 0.678069C11.3142 0.569431 11.5733 0.578417 11.7886 0.702247L19.9243 5.3806C20.1658 5.51946 20.3175 5.7825 20.3221 6.07006L20.3915 10.4847C20.3964 10.7933 20.2311 11.0775 19.9664 11.2155L19.366 11.5286V17.9863C19.366 18.2902 19.2013 18.568 18.9407 18.7039L9.70997 23.5178C9.47993 23.6378 9.20762 23.6299 8.98431 23.4968L1.80483 19.2178C1.56516 19.0749 1.41724 18.8091 1.41724 18.5211V12.1039L0.78371 11.7322C0.541496 11.5901 0.391602 11.3227 0.391602 11.0329V6.40701C0.391602 6.0955 0.564468 5.81215 0.835007 5.68021L11.0914 0.678069ZM3.33221 13.2274C3.16555 13.1296 2.9557 13.2498 2.9557 13.443V17.7715C2.9557 17.9476 3.0484 18.1108 3.19972 18.201L8.21874 21.1924C8.38538 21.2917 8.59673 21.1716 8.59673 20.9776V16.6024C8.59673 16.425 8.50274 16.2609 8.34975 16.1711L3.33221 13.2274ZM10.404 16.2025C10.2388 16.2886 10.1352 16.4595 10.1352 16.6458V21.0897C10.1352 21.2774 10.3344 21.3982 10.5008 21.3114L17.5587 17.6306C17.7239 17.5444 17.8275 17.3736 17.8275 17.1872V12.7433C17.8275 12.5556 17.6283 12.4348 17.4619 12.5216L10.404 16.2025Z" fill="#27ac27"/>
</svg>