<svg xmlns="http://www.w3.org/2000/svg" xmlns:xlink="http://www.w3.org/1999/xlink" viewBox="0,0,255.99609,255.99609" width="64px" height="64px" fill-rule="nonzero"><g fill="#7000f6" fill-rule="nonzero" stroke="none" stroke-width="1" stroke-linecap="butt" stroke-linejoin="miter" stroke-miterlimit="10" stroke-dasharray="" stroke-dashoffset="0" font-family="none" font-weight="none" font-size="none" text-anchor="none" style="mix-blend-mode: normal"><g transform="scale(4,4)"><path d="M37.289,28.973l7.139,-7.313l-29.027,-15.335c-0.701,-0.37 -1.451,-0.427 -2.131,-0.253zM11.084,8.284c-0.051,0.221 -0.084,0.452 -0.084,0.694v46.044c0,0.272 0.036,0.531 0.101,0.777l22.911,-23.469zM37.248,35.723l-23.893,22.226c0.657,0.147 1.374,0.081 2.046,-0.274l28.447,-15.029zM58.979,29.347l-9.489,-5.013l-8.638,8.036l8.003,7.631l10.124,-5.349c2.132,-1.126 2.132,-4.178 0,-5.305z"></path></g></g></svg>