<svg width="56" height="55" viewBox="0 0 56 55" fill="none" xmlns="http://www.w3.org/2000/svg">
<g id="Icon">
<path id="Oval" fill-rule="evenodd" clip-rule="evenodd" d="M28 55C43.1878 55 55.5 42.6878 55.5 27.5C55.5 12.3122 43.1878 0 28 0C12.8122 0 0.5 12.3122 0.5 27.5C0.5 42.6878 12.8122 55 28 55Z" fill="white"/>
<g id="chat-45">
<g id="ungroup">
<path id="Path" opacity="0.5" d="M37.5588 22H33.7941V32.3529C33.7941 32.8729 33.3729 33.2941 32.8529 33.2941H22.5V37.0588C22.5 37.5788 22.9212 38 23.4412 38H37.5588C38.0788 38 38.5 37.5788 38.5 37.0588V22.9412C38.5 22.4212 38.0788 22 37.5588 22Z" fill="#7000F6"/>
<path id="Path_2" d="M32.5588 33H18.4412C17.9212 33 17.5 32.5788 17.5 32.0588V17.9412C17.5 17.4212 17.9212 17 18.4412 17H32.5588C33.0788 17 33.5 17.4212 33.5 17.9412V32.0588C33.5 32.5788 33.0788 33 32.5588 33Z" fill="#7000F6"/>
</g>
</g>
</g>
</svg>
