<svg width="70" height="69" viewBox="0 0 70 69" fill="none" xmlns="http://www.w3.org/2000/svg">
<g id="Icon">
<path id="Oval" fill-rule="evenodd" clip-rule="evenodd" d="M35.125 69C54.1098 69 69.5 53.6098 69.5 34.625C69.5 15.6402 54.1098 0.25 35.125 0.25C16.1402 0.25 0.75 15.6402 0.75 34.625C0.75 53.6098 16.1402 69 35.125 69Z" fill="white"/>
<g id="node">
<path id="Path" d="M43.6918 38.5372C42.5614 38.5378 41.4719 38.9655 40.6371 39.7366L36.2913 35.9692V32.75C35.9128 32.7892 35.5313 32.7892 35.1528 32.75V35.9692L30.807 39.7366C29.032 38.119 26.3197 38.1751 24.6116 39.8648C22.9035 41.5545 22.7878 44.2959 24.3473 46.1267C25.9068 47.9575 28.6045 48.2473 30.5094 46.7885C32.4142 45.3298 32.8703 42.6249 31.5511 40.6101L35.7221 36.9924L39.8931 40.6083C38.7447 42.3705 38.9272 44.6966 40.336 46.2535C41.7448 47.8104 44.0195 48.1997 45.8563 47.1983C47.6931 46.1968 48.6221 44.0609 48.1107 42.0147C47.5993 39.9685 45.7785 38.5356 43.6918 38.5372Z" fill="#7000F6"/>
<path id="Shape" fill-rule="evenodd" clip-rule="evenodd" d="M32 27.125C32 29.5412 33.9588 31.5 36.375 31.5C38.7901 31.4973 40.7473 29.5401 40.75 27.125C40.75 24.7088 38.7912 22.75 36.375 22.75C33.9588 22.75 32 24.7088 32 27.125ZM33.0938 27.125C33.0938 25.3128 34.5628 23.8438 36.375 23.8438C38.1864 23.8456 39.6544 25.3136 39.6562 27.125C39.6562 28.9372 38.1872 30.4062 36.375 30.4062C34.5628 30.4062 33.0938 28.9372 33.0938 27.125Z" fill="#7000F6"/>
</g>
</g>
</svg>
