<svg width="42" height="42" viewBox="0 0 42 42" fill="none" xmlns="http://www.w3.org/2000/svg">
<g id="info" clip-path="url(#clip0_23_11705)">
<g id="Icons">
<g id="Outlined">
<g id="Action">
<g id="Outlined / Action / info">
<g id="Group">
<path id="&#240;&#159;&#148;&#185; Icon Color (Stroke)" fill-rule="evenodd" clip-rule="evenodd" d="M21.0003 4.33366C11.8015 4.33366 4.33366 11.8015 4.33366 21.0003C4.33366 30.1991 11.8015 37.667 21.0003 37.667C30.1991 37.667 37.667 30.1991 37.667 21.0003C37.667 11.8015 30.1991 4.33366 21.0003 4.33366ZM0.166992 21.0003C0.166992 9.50033 9.50033 0.166992 21.0003 0.166992C32.5003 0.166992 41.8337 9.50033 41.8337 21.0003C41.8337 32.5003 32.5003 41.8337 21.0003 41.8337C9.50033 41.8337 0.166992 32.5003 0.166992 21.0003Z" fill="#27ac27"/>
</g>
</g>
</g>
</g>
</g>
<path id="Vector 20 (Stroke)" fill-rule="evenodd" clip-rule="evenodd" d="M18.917 14.7507V10.584H23.0837V14.7507H18.917ZM18.917 31.4173V18.9173H23.0837V31.4173H18.917Z" fill="#27ac27"/>
</g>
<defs>
<clipPath id="clip0_23_11705">
<rect width="41.6667" height="41.6667" fill="white" transform="translate(0.166992 0.166992)"/>
</clipPath>
</defs>
</svg>
