<svg width="26" height="26" viewBox="0 0 26 26" fill="none" xmlns="http://www.w3.org/2000/svg">
<g id="info" clip-path="url(#clip0_23_1593)">
<g id="Icons">
<g id="Outlined">
<g id="Action">
<g id="Outlined / Action / info">
<g id="Group">
<path id="&#240;&#159;&#148;&#185; Icon Color (Stroke)" fill-rule="evenodd" clip-rule="evenodd" d="M13 3C7.48071 3 3 7.48071 3 13C3 18.5193 7.48071 23 13 23C18.5193 23 23 18.5193 23 13C23 7.48071 18.5193 3 13 3ZM0.5 13C0.5 6.1 6.1 0.5 13 0.5C19.9 0.5 25.5 6.1 25.5 13C25.5 19.9 19.9 25.5 13 25.5C6.1 25.5 0.5 19.9 0.5 13Z" fill="#FF3E3E"/>
</g>
</g>
</g>
</g>
</g>
<path id="Vector 20 (Stroke)" fill-rule="evenodd" clip-rule="evenodd" d="M11.75 9.25V6.75H14.25V9.25H11.75ZM11.75 19.25V11.75H14.25V19.25H11.75Z" fill="#FF3E3E"/>
</g>
<defs>
<clipPath id="clip0_23_1593">
<rect width="25" height="25" fill="white" transform="translate(0.5 0.5)"/>
</clipPath>
</defs>
</svg>
