<svg xmlns="http://www.w3.org/2000/svg" width="24" height="24" viewBox="0 0 24 24" fill="none">
  <path d="M20.0467 11.0909C19.6304 7.3 16.6347 4.29091 12.8606 3.87273V2H11.0505V3.87273C7.27645 4.29091 4.28073 7.3 3.86441 11.0909H2V12.9091H3.86441C4.28073 16.7 7.27645 19.7091 11.0505 20.1273V22H12.8606V20.1273C16.6347 19.7091 19.6304 16.7 20.0467 12.9091H21.9111V11.0909H20.0467ZM11.9556 18.3636C8.45754 18.3636 5.62021 15.5136 5.62021 12C5.62021 8.48636 8.45754 5.63636 11.9556 5.63636C15.4536 5.63636 18.2909 8.48636 18.2909 12C18.2909 15.5136 15.4536 18.3636 11.9556 18.3636Z" fill="#A5A9B2"/>
</svg>