<svg width="36" height="36" viewBox="0 0 36 36" fill="none" xmlns="http://www.w3.org/2000/svg">
<g id="icon / instagram">
<rect width="36" height="36" rx="10" fill="#F1F5FB"/>
<path id="Union" fill-rule="evenodd" clip-rule="evenodd" d="M25.2216 7.57999C26.701 8.15142 27.8695 9.3212 28.4434 10.8006C28.7713 11.6669 28.9426 12.5858 28.9585 13.5133C29.0271 14.6843 29.0271 15.0636 29.0271 18.0529C29.0271 21.0422 29.0112 21.4154 28.9585 22.5925C28.9402 23.5078 28.7677 24.4108 28.4458 25.2674C27.872 26.7467 26.7034 27.9153 25.2241 28.4891C24.3675 28.8097 23.4633 28.9835 22.5492 29.0018C21.3807 29.0691 20.9977 29.0691 18.0096 29.0691C15.0216 29.0691 14.6484 29.0532 13.47 29.0018C12.5523 28.9725 11.648 28.784 10.7964 28.4512C9.31583 27.8786 8.14728 26.7088 7.5734 25.2307C7.25159 24.3729 7.07906 23.4699 7.06071 22.5546C6.99219 21.3836 6.99219 21.0031 6.99219 18.015C6.99219 15.0257 7.00809 14.6525 7.06071 13.4754C7.07906 12.5601 7.25159 11.6571 7.5734 10.8006C8.14606 9.3212 9.31461 8.15142 10.7952 7.57999C11.6505 7.25696 12.5547 7.08443 13.4676 7.06608C14.6361 7 15.0191 7 18.0072 7C20.9952 7 21.3685 7.01468 22.5468 7.06608C23.4621 7.08565 24.3663 7.25818 25.2216 7.57999ZM26.5725 24.5295C26.8172 23.8675 26.9445 23.1689 26.953 22.4641V22.4653H26.9665C27.0191 21.2955 27.0191 20.9749 27.0191 17.9942C27.0191 15.0122 27.0057 14.6855 26.953 13.5219C26.942 12.8244 26.8123 12.1331 26.5725 11.4797C26.1993 10.5167 25.4394 9.75558 24.4777 9.38483C23.823 9.14133 23.1329 9.01285 22.4342 9.00428C21.251 8.93698 20.9451 8.93698 17.9631 8.93698C14.9812 8.93698 14.6545 8.95167 13.4908 9.00428C12.7946 9.01407 12.102 9.14255 11.4486 9.38483C10.4832 9.75436 9.7184 10.5142 9.3452 11.4797C9.10048 12.1416 8.97322 12.8391 8.96466 13.5439C8.8998 14.7296 8.8998 15.0343 8.8998 18.0162C8.8998 20.9969 8.91204 21.3249 8.96466 22.4873C8.97567 23.1848 9.10537 23.8761 9.3452 24.5295C9.7184 25.4937 10.4832 26.2548 11.4486 26.6231C12.102 26.8666 12.7946 26.9951 13.4908 27.0037C14.6753 27.071 14.98 27.071 17.9631 27.071C20.9439 27.071 21.2718 27.0575 22.4342 27.0037C23.1329 26.9939 23.823 26.8666 24.4777 26.6231C25.4394 26.2536 26.1993 25.4925 26.5725 24.5295ZM23.8829 13.4605C24.6114 13.4605 25.2019 12.87 25.2019 12.1415C25.2019 11.413 24.6114 10.8224 23.8829 10.8224C23.1544 10.8224 22.5638 11.413 22.5638 12.1415C22.5638 12.87 23.1544 13.4605 23.8829 13.4605ZM18.0011 12.3495C14.876 12.3495 12.3443 14.8824 12.3443 18.0063C12.3443 21.1314 14.876 23.6643 18.0011 23.6643C21.1238 23.6643 23.6579 21.1314 23.6579 18.0063C23.6579 14.8824 21.1238 12.3495 18.0011 12.3495ZM18.0011 21.6821C15.9711 21.6821 14.3253 20.0363 14.3253 18.0075C14.3253 15.9776 15.9711 14.333 18.0011 14.333C20.0311 14.333 21.6744 15.9776 21.6744 18.0075C21.6744 20.0363 20.0311 21.6821 18.0011 21.6821Z" fill="#4A5466"/>
</g>
</svg>
