<svg xmlns="http://www.w3.org/2000/svg" width="31" height="30" viewBox="0 0 31 30" fill="none">
  <mask id="mask0_23_10668" style="mask-type:luminance" maskUnits="userSpaceOnUse" x="4" y="1" width="26" height="27">
    <path fill-rule="evenodd" clip-rule="evenodd" d="M29.7988 1.7998H4.33713V27.1592H29.7988V1.7998Z" fill="white"/>
  </mask>
  <g mask="url(#mask0_23_10668)">
    <path fill-rule="evenodd" clip-rule="evenodd" d="M4.33713 14.4542C4.33713 16.7919 4.94822 18.9264 6.06853 20.8068C6.39953 21.3827 6.77297 21.9248 7.19733 22.4415C9.51435 25.3298 13.0875 27.1593 17.068 27.1593C21.0485 27.1593 24.6216 25.3298 26.9386 22.4415C27.363 21.9248 27.7364 21.3827 28.0674 20.8068C29.1877 18.9264 29.7988 16.7919 29.7988 14.4542C29.7988 7.49173 24.0954 1.7998 17.068 1.7998C10.0406 1.7998 4.33713 7.49173 4.33713 14.4542Z" fill="rgba(86, 225, 0, 0.19)"/>
  </g>
  <path fill-rule="evenodd" clip-rule="evenodd" d="M7.19815 22.4421C9.51517 25.3304 13.0883 27.16 17.0688 27.16C21.0493 27.16 24.6224 25.3304 26.9395 22.4421C24.6055 19.5961 21.0493 17.7666 17.0688 17.7666C13.0883 17.7666 9.53214 19.5961 7.19815 22.4421Z" fill="rgba(95, 180, 52, 0.19)"/>
  <path fill-rule="evenodd" clip-rule="evenodd" d="M12.581 11.5858C12.581 14.0616 14.5924 16.069 17.0733 16.069C19.5549 16.069 21.5664 14.0616 21.5664 11.5858C21.5664 9.10911 19.5549 7.10254 17.0733 7.10254C14.5924 7.10254 12.581 9.10911 12.581 11.5858Z" fill="white"/>
  <path fill-rule="evenodd" clip-rule="evenodd" d="M14.2731 20.6872L11.5907 23.3696L10.3539 23.3904L10.3531 26.6001L7.14801 26.5956L4.73339 24.1813L4.72931 22.9693L3.9087 23.3566L1.18242 20.6304L6.74931 15.0635L8.65582 15.0699L14.2731 20.6872Z" fill="white"/>
  <path fill-rule="evenodd" clip-rule="evenodd" d="M7.19037 17.6501L7.18816 24.3454L7.18768 25.7144L7.93739 25.7153L9.5241 25.7171L9.52679 17.6528L7.19037 17.6501Z" fill="#27ac27"/>
  <path fill-rule="evenodd" clip-rule="evenodd" d="M3.68431 20.6295L5.41319 22.3584L8.38211 19.3894L11.3928 22.4002L13.0977 20.6953L8.35807 15.9557L3.68431 20.6295Z" fill="#27ac27"/>
</svg>