<svg xmlns="http://www.w3.org/2000/svg" width="30" height="30" viewBox="0 0 30 30" fill="none">
  <path d="M2.52651 8.3046L8.32995 0.831596C8.44361 0.685237 8.61853 0.599609 8.80384 0.599609H20.4358C20.6211 0.599609 20.796 0.685236 20.9097 0.831596L26.7132 8.3046C26.7949 8.40986 26.8393 8.53934 26.8393 8.67261V27.2108C26.8393 27.5422 26.5706 27.8108 26.2393 27.8108H3.00039C2.66902 27.8108 2.40039 27.5422 2.40039 27.2108V8.67262C2.40039 8.53934 2.44476 8.40986 2.52651 8.3046Z" fill="#27ac27"/>
  <path fill-rule="evenodd" clip-rule="evenodd" d="M23.5064 18.291C20.439 18.291 17.9521 20.7776 17.9521 23.8449C17.9521 26.913 20.439 29.3996 23.5064 29.3996C26.5739 29.3996 29.0607 26.913 29.0607 23.8449C29.0607 20.7776 26.5739 18.291 23.5064 18.291Z" fill="rgba(0, 250, 0, 0.31)"/>
  <path fill-rule="evenodd" clip-rule="evenodd" d="M23.506 20.6719C23.9444 20.6719 24.2991 21.0273 24.2991 21.4649V23.5174L25.6551 24.8724C25.964 25.1822 25.964 25.6849 25.6551 25.9947C25.4985 26.1487 25.2962 26.2257 25.093 26.2257C24.8899 26.2257 24.6867 26.1487 24.531 25.9947L22.944 24.4077C22.7958 24.2596 22.7129 24.0582 22.7129 23.8483V21.4649C22.7129 21.0273 23.0675 20.6719 23.506 20.6719Z" fill="white"/>
  <path fill-rule="evenodd" clip-rule="evenodd" d="M12.8911 0.599609L11.1631 8.37562V15.4221C11.1631 15.6901 11.4877 15.8236 11.6763 15.6332L12.6779 14.6214C12.7953 14.5028 12.9869 14.5028 13.1043 14.6214L14.4059 15.9362C14.5233 16.0548 14.7149 16.0548 14.8323 15.9362L16.1339 14.6214C16.2513 14.5028 16.4429 14.5028 16.5603 14.6214L17.5619 15.6332C17.7504 15.8236 18.0751 15.6901 18.0751 15.4221V8.37562L16.3471 0.599609H12.8911Z" fill="white"/>
</svg>