<svg width="36" height="36" viewBox="0 0 36 36" fill="none" xmlns="http://www.w3.org/2000/svg">
<g id="icon / linkedin">
<rect width="36" height="36" rx="10" fill="#F1F5FB"/>
<path id="Union" fill-rule="evenodd" clip-rule="evenodd" d="M12.5728 9.16724C12.5728 10.5152 11.48 11.6079 10.1321 11.6079C8.78414 11.6079 7.69141 10.5152 7.69141 9.16724C7.69141 7.81929 8.78414 6.72656 10.1321 6.72656C11.48 6.72656 12.5728 7.81929 12.5728 9.16724ZM14.8775 26.9983V13.4574H18.9133V15.3092H18.9702C19.5313 14.2461 20.9033 13.1228 22.9503 13.1228C27.2136 13.1228 27.9989 15.926 27.9989 19.5737V26.9994H23.7924V20.4136C23.7924 18.8441 23.7657 16.824 21.605 16.824C19.4142 16.824 19.0818 18.5351 19.0818 20.3021V26.9983H14.8775ZM12.2371 13.4574H8.0262V26.9983H12.2371V13.4574Z" fill="#4A5466"/>
</g>
</svg>
