<svg xmlns="http://www.w3.org/2000/svg" width="25" height="25" viewBox="0 0 25 25" fill="none">
  <path fill-rule="evenodd" clip-rule="evenodd" d="M19.5302 3.2168C20.6451 3.2168 21.5488 4.12057 21.5488 5.23543V19.8705C21.5488 20.9854 20.6451 21.8892 19.5302 21.8892H12.2126V19.3659H18.0162C18.5736 19.3659 19.0255 18.914 19.0255 18.3565V6.74941C19.0255 6.19198 18.5736 5.74009 18.0162 5.74009H12.2126V3.2168H19.5302ZM9.67457 17.4882L11.5283 15.6345L9.62205 13.7282L14.6681 13.7297L16.136 13.7302L16.1369 12.9263L16.1389 11.225L9.57301 11.2231L11.5731 9.22299L9.74515 7.39503L4.66327 12.4769L9.67457 17.4882Z" fill="#777F8C"/>
</svg>