<svg xmlns="http://www.w3.org/2000/svg" width="26" height="22" viewBox="0 0 26 22" fill="none">
  <path fill-rule="evenodd" clip-rule="evenodd" d="M0.738281 4.74815C0.738281 2.49419 2.56548 0.666992 4.81944 0.666992H21.1817C23.4356 0.666992 25.2628 2.49419 25.2628 4.74815V12.9355C25.2628 15.1895 23.4356 17.0167 21.1817 17.0167H12.8369L7.91871 21.4877C7.04484 22.2822 5.64323 21.6621 5.64323 20.4811V17.0167H4.81944C2.56548 17.0167 0.738281 15.1895 0.738281 12.9355V4.74815ZM7.05503 11.0711C8.28635 11.0711 9.28453 10.0729 9.28453 8.84159C9.28453 7.61027 8.28635 6.61209 7.05503 6.61209C5.8237 6.61209 4.82552 7.61027 4.82552 8.84159C4.82552 10.0729 5.8237 11.0711 7.05503 11.0711ZM15.2302 8.84116C15.2302 10.0725 14.232 11.0707 13.0007 11.0707C11.7693 11.0707 10.7712 10.0725 10.7712 8.84116C10.7712 7.60984 11.7693 6.61165 13.0007 6.61165C14.232 6.61165 15.2302 7.60984 15.2302 8.84116ZM18.946 11.0707C20.1773 11.0707 21.1755 10.0725 21.1755 8.84116C21.1755 7.60984 20.1773 6.61165 18.946 6.61165C17.7147 6.61165 16.7165 7.60984 16.7165 8.84116C16.7165 10.0725 17.7147 11.0707 18.946 11.0707Z" fill="black"/>
</svg>