<svg xmlns="http://www.w3.org/2000/svg" width="30" height="30" viewBox="0 0 30 30" fill="none">
  <mask id="mask0_23_10274" style="mask-type:luminance" maskUnits="userSpaceOnUse" x="1" y="1" width="28" height="28">
    <path fill-rule="evenodd" clip-rule="evenodd" d="M1.2002 1.2002H28.8555V28.8H1.2002V1.2002Z" fill="white"/>
  </mask>
  <g mask="url(#mask0_23_10274)">
    <path fill-rule="evenodd" clip-rule="evenodd" d="M28.8555 14.9725C28.8555 17.5168 28.1918 19.8399 26.9749 21.8864C26.6154 22.5132 26.2098 23.1032 25.7489 23.6655C23.2323 26.809 19.3513 28.8002 15.0279 28.8002C10.7044 28.8002 6.82344 26.809 4.30681 23.6655C3.84589 23.1032 3.44028 22.5132 3.08076 21.8864C1.86392 19.8399 1.2002 17.5168 1.2002 14.9725C1.2002 7.39498 7.39498 1.2002 15.0279 1.2002C22.6607 1.2002 28.8555 7.39498 28.8555 14.9725Z" fill="rgba(0, 251, 0, 0.31)"/>
  </g>
  <path fill-rule="evenodd" clip-rule="evenodd" d="M25.7477 23.6647C23.2311 26.8082 19.3502 28.7994 15.0267 28.7994C10.7033 28.7994 6.8223 26.8082 4.30566 23.6647C6.84073 20.5674 10.7033 18.5762 15.0267 18.5762C19.3502 18.5762 23.2127 20.5674 25.7477 23.6647Z" fill="#27ac27"/>
  <path fill-rule="evenodd" clip-rule="evenodd" d="M19.9012 11.85C19.9012 14.5446 17.7164 16.7293 15.0218 16.7293C12.3264 16.7293 10.1416 14.5446 10.1416 11.85C10.1416 9.15455 12.3264 6.9707 15.0218 6.9707C17.7164 6.9707 19.9012 9.15455 19.9012 11.85Z" fill="white"/>
</svg>