<svg xmlns="http://www.w3.org/2000/svg" width="30" height="30" viewBox="0 0 30 30" fill="none">
  <g clip-path="url(#clip0_23_10247)">
    <mask id="mask0_23_10247" style="mask-type:luminance" maskUnits="userSpaceOnUse" x="0" y="0" width="30" height="30">
      <path fill-rule="evenodd" clip-rule="evenodd" d="M0.825195 29.1748H29.1752V0.824806H0.825195V29.1748Z" fill="white"/>
    </mask>
    <g mask="url(#mask0_23_10247)">
      <path fill-rule="evenodd" clip-rule="evenodd" d="M27.2474 22.0731C26.9733 22.556 26.6709 23.02 26.3307 23.465C23.7603 26.9401 19.6212 29.1748 15.0002 29.1748C10.3791 29.1748 6.24005 26.9401 3.66965 23.465C3.32945 23.02 3.02705 22.556 2.753 22.0731C1.5056 19.9709 0.825195 17.5847 0.825195 14.9713C0.825195 7.18778 7.1756 0.824615 15.0002 0.824615C22.8248 0.824615 29.1752 7.18778 29.1752 14.9713C29.1752 17.5847 28.4948 19.9709 27.2474 22.0731Z" fill="rgba(0, 251, 0, 0.31)"/>
    </g>
    <path fill-rule="evenodd" clip-rule="evenodd" d="M26.331 23.465C23.7606 26.9401 19.6215 29.1748 15.0005 29.1748C10.3794 29.1748 6.24032 26.9401 3.66992 23.465C6.25922 20.0372 10.37 17.812 15.0005 17.812C19.631 17.812 23.7417 20.0372 26.331 23.465Z" fill="#27ac27"/>
    <path fill-rule="evenodd" clip-rule="evenodd" d="M23.3065 15.0381L20.6416 12.3583L16.8899 16.1081V7.45341H13.1099V16.1081L9.35826 12.3583L6.69336 15.0381L14.9999 23.3613L23.3065 15.0381Z" fill="white"/>
  </g>
  <defs>
    <clipPath id="clip0_23_10247">
      <rect width="30" height="30" fill="white"/>
    </clipPath>
  </defs>
</svg>