<svg xmlns="http://www.w3.org/2000/svg" width="31" height="30" viewBox="0 0 31 30" fill="none">
  <g clip-path="url(#clip0_23_10619)">
    <mask id="mask0_23_10619" style="mask-type:luminance" maskUnits="userSpaceOnUse" x="1" y="1" width="27" height="27">
      <path fill-rule="evenodd" clip-rule="evenodd" d="M1.78223 1.7998H27.2439V27.1592H1.78223V1.7998Z" fill="white"/>
    </mask>
    <g mask="url(#mask0_23_10619)">
      <path fill-rule="evenodd" clip-rule="evenodd" d="M27.2439 14.4542C27.2439 16.7919 26.6328 18.9264 25.5125 20.8067C25.1815 21.3827 24.8081 21.9248 24.3837 22.4415C22.0667 25.3298 18.4936 27.1593 14.5131 27.1593C10.5326 27.1593 6.95943 25.3298 4.64242 22.4415C4.21806 21.9248 3.84462 21.3827 3.51362 20.8067C2.39331 18.9264 1.78223 16.7919 1.78223 14.4542C1.78223 7.49172 7.48564 1.7998 14.5131 1.7998C21.5405 1.7998 27.2439 7.49172 27.2439 14.4542Z" fill="#FFD899"/>
    </g>
    <path fill-rule="evenodd" clip-rule="evenodd" d="M24.3829 22.4421C22.0659 25.3304 18.4928 27.16 14.5122 27.16C10.5317 27.16 6.95861 25.3304 4.6416 22.4421C6.97559 19.5961 10.5317 17.7666 14.5122 17.7666C18.4928 17.7666 22.0489 19.5961 24.3829 22.4421Z" fill="#FF9E00"/>
    <path fill-rule="evenodd" clip-rule="evenodd" d="M19.0001 11.5858C19.0001 14.0616 16.9886 16.069 14.5078 16.069C12.0261 16.069 10.0146 14.0616 10.0146 11.5858C10.0146 9.10911 12.0261 7.10254 14.5078 7.10254C16.9886 7.10254 19.0001 9.10911 19.0001 11.5858Z" fill="white"/>
    <path fill-rule="evenodd" clip-rule="evenodd" d="M23.613 15.1087L26.2954 17.7912L26.3162 19.028L29.5259 19.0288L29.5214 22.2338L27.1071 24.6484L25.8951 24.6525L26.2824 25.4731L23.5561 28.1994L17.9893 22.6325L17.9957 20.726L23.613 15.1087Z" fill="white"/>
    <path fill-rule="evenodd" clip-rule="evenodd" d="M20.5759 22.1915L27.2712 22.1937L28.6402 22.1941L28.6411 21.4444L28.6429 19.8577L20.5785 19.855L20.5759 22.1915Z" fill="#27ac27"/>
    <path fill-rule="evenodd" clip-rule="evenodd" d="M23.5553 25.6985L25.2841 23.9696L22.3152 21.0007L25.3259 17.99L23.6211 16.2852L18.8815 21.0247L23.5553 25.6985Z" fill="#27ac27"/>
  </g>
  <defs>
    <clipPath id="clip0_23_10619">
      <rect width="30" height="30" fill="white" transform="translate(0.582031)"/>
    </clipPath>
  </defs>
</svg>