<svg xmlns="http://www.w3.org/2000/svg" width="25" height="25" viewBox="0 0 25 25" fill="none">
  <mask id="mask0_23_1399" style="mask-type:luminance" maskUnits="userSpaceOnUse" x="0" y="0" width="25" height="25">
    <path fill-rule="evenodd" clip-rule="evenodd" d="M0 0.769531H24.0481V24.7694H0V0.769531Z" fill="white"/>
  </mask>
  <g mask="url(#mask0_23_1399)">
    <path fill-rule="evenodd" clip-rule="evenodd" d="M24.0481 12.7455C24.0481 14.9579 23.4709 16.9779 22.4128 18.7575C22.1804 19.1663 21.9238 19.5591 21.6353 19.9359C19.4549 22.8777 15.9439 24.7695 12.024 24.7695C8.10421 24.7695 4.59319 22.8777 2.41283 19.9359C2.12425 19.5591 1.86774 19.1663 1.63527 18.7575C0.577154 16.9779 0 14.9579 0 12.7455C0 6.1563 5.38677 0.769531 12.024 0.769531C18.6613 0.769531 24.0481 6.1563 24.0481 12.7455Z" fill="rgba(0, 96, 0, 0.19)"/>
  </g>
  <path fill-rule="evenodd" clip-rule="evenodd" d="M21.6355 19.936C19.4552 22.8778 15.9441 24.7696 12.0243 24.7696C8.10447 24.7696 4.59345 22.8778 2.41309 19.936C4.60948 17.0342 8.09645 15.1504 12.0243 15.1504C15.9522 15.1504 19.4391 17.0342 21.6355 19.936Z" fill="#27ac27"/>
  <path fill-rule="evenodd" clip-rule="evenodd" d="M19.0707 12.8017L12.0246 19.8478L4.97852 12.8017L7.23904 10.5332L10.4214 13.7075V6.38086H13.6278V13.7075L16.8102 10.5332L19.0707 12.8017Z" fill="white"/>
</svg>