<svg xmlns="http://www.w3.org/2000/svg" width="18" height="15" viewBox="0 0 18 15" fill="none">
  <path fill-rule="evenodd" clip-rule="evenodd" d="M3.73474 14.6788L15.7347 1.67883L14.2651 0.322266L2.26514 13.3223L3.73474 14.6788ZM8.82 2.00049C9.60463 2.00049 10.3717 2.09178 11.1095 2.26647L10.2245 3.22516C9.78234 3.07939 9.31015 3.00049 8.82 3.00049C6.34 3.00049 4.32 5.02049 4.32 7.50049C4.32 8.11732 4.44496 8.70569 4.67088 9.2416L2.97134 11.0828C1.73224 10.1637 0.707848 8.94621 0 7.50049C1.65 4.13049 5.03 2.00049 8.82 2.00049ZM8.82 12.0005C8.43302 12.0005 8.05723 11.9513 7.69858 11.8589L6.8289 12.801C7.47391 12.9323 8.14007 13.0005 8.82 13.0005C12.62 13.0005 15.99 10.8705 17.64 7.50049C16.9731 6.13836 16.0235 4.97881 14.8785 4.08061L13.0747 6.03478C13.2336 6.49448 13.32 6.98765 13.32 7.50049C13.32 9.98049 11.3 12.0005 8.82 12.0005Z" fill="#777F8C"/>
</svg>