<svg xmlns="http://www.w3.org/2000/svg" width="72" height="16" viewBox="0 0 72 16" fill="none">
  <path fill-rule="evenodd" clip-rule="evenodd" d="M38.8953 0.843458C38.085 0.805453 37.8273 0.797852 35.7621 0.797852C33.697 0.797852 33.4393 0.807733 32.629 0.843458C31.8187 0.881463 31.2684 1.0084 30.7835 1.1969C30.2761 1.38748 29.8164 1.68659 29.4366 2.0733C29.0495 2.45284 28.7504 2.91259 28.5602 3.4202C28.3717 3.90515 28.2447 4.45546 28.2067 5.26573C28.1687 6.07599 28.1611 6.33367 28.1611 8.39886C28.1611 10.4641 28.171 10.7217 28.2067 11.532C28.2447 12.3415 28.3717 12.8933 28.5602 13.3775C28.7509 13.8849 29.05 14.3445 29.4366 14.7244C29.8163 15.1113 30.276 15.4104 30.7835 15.6008C31.2684 15.7886 31.8195 15.9163 32.629 15.9543C33.4393 15.9923 33.697 15.9999 35.7621 15.9999C37.8273 15.9999 38.085 15.99 38.8953 15.9543C39.7048 15.9163 40.2566 15.7886 40.7408 15.6008C41.248 15.4099 41.7076 15.1108 42.0877 14.7244C42.4747 14.3448 42.7738 13.8851 42.9641 13.3775C43.1518 12.8926 43.2795 12.3415 43.3176 11.532C43.3556 10.7217 43.3632 10.4641 43.3632 8.39886C43.3632 6.33367 43.3533 6.07599 43.3176 5.26573C43.2795 4.45622 43.1518 3.90439 42.9641 3.4202C42.7733 2.9129 42.4742 2.45327 42.0877 2.0733C41.6651 1.65145 41.2425 1.38997 40.7408 1.1969C40.2559 1.0084 39.7048 0.881463 38.8953 0.843458ZM31.9617 8.39883C31.9617 6.29987 33.6632 4.59832 35.7622 4.59832C37.8612 4.59832 39.5627 6.29987 39.5627 8.39883C39.5627 10.4978 37.8612 12.1993 35.7622 12.1993C33.6632 12.1993 31.9617 10.4978 31.9617 8.39883ZM40.7026 4.40831C40.7026 3.88357 40.2772 3.45818 39.7525 3.45818C39.2277 3.45818 38.8024 3.88357 38.8024 4.40831C38.8024 4.93305 39.2277 5.35843 39.7525 5.35843C40.2772 5.35843 40.7026 4.93305 40.7026 4.40831ZM38.0425 8.39891C38.0425 7.13953 37.0216 6.1186 35.7622 6.1186C34.5028 6.1186 33.4819 7.13953 33.4819 8.39891C33.4819 9.65828 34.5028 10.6792 35.7622 10.6792C37.0216 10.6792 38.0425 9.65828 38.0425 8.39891Z" fill="white"/>
  <path d="M15.5146 3.57662C14.9343 3.8333 14.319 4.00188 13.6889 4.07677C14.353 3.67957 14.8501 3.05444 15.0875 2.3179C14.4642 2.68882 13.7808 2.94878 13.0686 3.0894C12.0849 2.0369 10.5164 1.77753 9.24628 2.45734C7.97614 3.13715 7.32198 4.58615 7.65214 5.98842C5.09594 5.8603 2.71433 4.65292 1.10007 2.66678C0.817531 3.15207 0.669057 3.70373 0.669851 4.26527C0.669851 5.36742 1.23081 6.34111 2.08364 6.91119C1.57894 6.8953 1.08535 6.759 0.644007 6.51365V6.55318C0.644321 8.06657 1.71082 9.37021 3.19415 9.67036C2.72563 9.79732 2.23437 9.81603 1.75756 9.72508C2.17343 11.0204 3.36703 11.9079 4.72727 11.9332C3.39553 12.9791 1.70263 13.4527 0.0214844 13.2497C1.47457 14.1842 3.1661 14.6803 4.89373 14.6787C10.7412 14.6787 13.9389 9.83454 13.9389 5.63346C13.9389 5.49664 13.9351 5.3583 13.9291 5.223C14.5515 4.77315 15.0887 4.21588 15.5154 3.57738L15.5146 3.57662Z" fill="white"/>
  <path fill-rule="evenodd" clip-rule="evenodd" d="M59.2485 1.70996H70.6471C71.1926 1.70996 71.6385 2.14102 71.6385 2.6739V14.1238C71.6385 14.6567 71.1926 15.0877 70.6471 15.0877H59.2477C58.7022 15.0877 58.2607 14.6567 58.2607 14.1238V2.6739C58.2607 2.14102 58.7015 1.70996 59.2485 1.70996ZM60.4219 5.51655C60.6377 5.73247 60.9305 5.85365 61.2357 5.85335C61.871 5.85356 62.3862 5.33888 62.3866 4.7036C62.387 4.06821 61.8723 3.55278 61.2369 3.55237C60.6015 3.55196 60.086 4.06672 60.0856 4.70212C60.085 5.0075 60.206 5.30055 60.4219 5.51655ZM67.6775 13.11H69.6581H69.6589V9.60576C69.6589 7.88671 69.2873 6.56529 67.2806 6.56529C66.3144 6.56529 65.6678 7.09519 65.4018 7.59612H65.3758V6.72656H63.4731V13.11H65.4545V9.95135C65.4545 9.11821 65.6121 8.31257 66.6444 8.31257C67.6626 8.31257 67.6775 9.26537 67.6775 10.0056V13.11ZM62.2289 13.1101H60.2423V6.72668H62.2297V13.1101H62.2289Z" fill="white"/>
</svg>