<svg xmlns="http://www.w3.org/2000/svg" width="72" height="16" viewBox="0 0 72 16" fill="none">
  <path fill-rule="evenodd" clip-rule="evenodd" d="M71.3905 12.7346V7.52181C71.3905 4.81317 69.8914 3.70596 68.1027 3.70596C66.9272 3.70596 66.0926 4.20001 65.5815 4.9155V0.639648H62.6344V12.7346H65.5815V8.03313C65.5815 7.11298 66.0074 6.31227 66.9954 6.31227C68.0006 6.31227 68.4434 7.11298 68.4434 8.03313V12.7346H71.3905ZM52.3616 12.3428V10.1113C52.0549 10.2136 51.7313 10.2475 51.5268 10.2475C50.6922 10.2475 50.4537 9.7365 50.4537 9.32767V6.1931H52.3275V3.87634H50.4537V1.61074H47.5066V3.87634H46.1609V6.1931H47.5066V9.77056C47.5066 11.985 48.7843 12.8369 50.556 12.8369C51.2203 12.8369 52.0209 12.7176 52.3616 12.3428ZM29.9766 6.31233C30.9986 6.31233 31.9015 7.06172 31.9015 8.30563C31.9015 9.54923 30.9986 10.2986 29.9766 10.2986C28.9204 10.2986 28.0346 9.56618 28.0346 8.30563C28.0346 7.04477 28.9204 6.31233 29.9766 6.31233ZM30.5898 12.9049C32.5829 12.9049 34.7974 11.4058 34.7974 8.3056C34.7974 5.20508 32.5829 3.70598 30.5898 3.70598C29.0566 3.70598 28.222 4.5577 28.1539 4.71103H28.1027V3.87626H25.1557V15.9714H28.1027V11.8999H28.1539C28.222 12.0532 29.0566 12.9049 30.5898 12.9049ZM19.3295 9.71937L17.0127 10.3496C17.2853 12.0873 18.6651 12.905 20.4877 12.905C22.5489 12.905 24.0822 11.8489 24.0822 10.0601C24.0822 8.40766 22.7705 7.74317 21.9188 7.47057L20.7093 7.02768C20.1981 6.89146 20.0788 6.65291 20.0788 6.44857C20.0788 6.26102 20.2322 5.95452 20.6922 5.95452C20.9478 5.95452 21.3736 6.05669 21.561 6.73813L23.8606 6.17596C23.5711 4.69397 22.3105 3.70603 20.5731 3.70603C18.7844 3.70603 17.234 4.69397 17.234 6.39757C17.234 7.53884 17.8644 8.50999 19.3295 9.02099L20.6241 9.49793C21.0841 9.63415 21.1862 9.8727 21.1862 10.0601C21.1862 10.4349 20.8455 10.6223 20.4367 10.6223C19.6781 10.6223 19.4624 10.0636 19.3412 9.74966L19.3295 9.71937ZM42.2083 8.30563C42.2083 7.04477 41.3225 6.31233 40.2663 6.31233C39.2441 6.31233 38.3414 7.06172 38.3414 8.30563C38.3414 9.54923 39.2441 10.2986 40.2663 10.2986C41.3225 10.2986 42.2083 9.56618 42.2083 8.30563ZM35.4453 8.3056C35.4453 5.20508 37.6599 3.70598 39.636 3.70598C41.1861 3.70598 42.0208 4.5577 42.0889 4.71103H42.1401V3.87626H45.0871V12.7346H42.1401V11.8999H42.0889C42.0208 12.0532 41.1861 12.9049 39.636 12.9049C37.6599 12.9049 35.4453 11.4058 35.4453 8.3056ZM52.9752 8.28844C52.9752 5.29008 55.3431 3.70593 57.728 3.70593C59.2952 3.70593 60.6581 4.42142 61.5608 5.88646L59.4316 7.28323C59.0397 6.78918 58.4946 6.34629 57.728 6.34629C56.706 6.34629 55.8712 7.13006 55.8712 8.28844C55.8712 9.48087 56.706 10.2646 57.728 10.2646C58.4946 10.2646 59.0397 9.82175 59.4316 9.3277L61.5608 10.7245C60.6581 12.1555 59.2952 12.905 57.728 12.905C55.3431 12.905 52.9752 11.3208 52.9752 8.28844Z" fill="white"/>
  <path fill-rule="evenodd" clip-rule="evenodd" d="M1.95122 1.70215V6.6664L3.06968 7.83064L0.120117 10.8006L3.06968 13.7613L7.50789 13.7627L8.62461 12.6443L9.02394 13.7627H14.034V3.46055L12.2757 1.70215H1.95122ZM3.09156 2.81411H11.7988V11.5214H8.62448V8.22506L3.81862 13.0309L1.57267 10.7865L6.37219 5.98845H3.09156V2.81411Z" fill="white"/>
</svg>