<svg xmlns="http://www.w3.org/2000/svg" width="30" height="30" viewBox="0 0 30 30" fill="none">
  <mask id="mask0_23_10302" style="mask-type:luminance" maskUnits="userSpaceOnUse" x="1" y="1" width="28" height="28">
    <path fill-rule="evenodd" clip-rule="evenodd" d="M28.8545 1.2002H1.19918V28.8H28.8545V1.2002Z" fill="white"/>
  </mask>
  <g mask="url(#mask0_23_10302)">
    <path fill-rule="evenodd" clip-rule="evenodd" d="M1.19918 14.9725C1.19918 17.5168 1.86291 19.8399 3.07974 21.8864C3.43926 22.5132 3.84487 23.1032 4.30579 23.6655C6.82243 26.809 10.7034 28.8002 15.0268 28.8002C19.3503 28.8002 23.2312 26.809 25.7479 23.6655C26.2088 23.1032 26.6144 22.5132 26.9739 21.8864C28.1908 19.8399 28.8545 17.5168 28.8545 14.9725C28.8545 7.39498 22.6597 1.2002 15.0268 1.2002C7.39397 1.2002 1.19918 7.39498 1.19918 14.9725Z" fill="#27ac27"/>
  </g>
  <path fill-rule="evenodd" clip-rule="evenodd" d="M4.30597 23.6647C6.8226 26.8082 10.7036 28.7994 15.027 28.7994C19.3505 28.7994 23.2314 26.8082 25.748 23.6647C23.213 20.5674 19.3505 18.5762 15.027 18.5762C10.7036 18.5762 6.84103 20.5674 4.30597 23.6647Z" fill="rgba(0, 251, 0, 0.31)"/>
  <path d="M18.9016 16.1586C18.5507 15.838 18.0091 15.8548 17.6785 16.1966L15.5744 18.37C15.0679 18.2728 14.0497 17.954 13.0016 16.904C11.9535 15.8504 11.6361 14.8251 11.542 14.3199L13.7041 12.2057C14.0453 11.8736 14.0611 11.3305 13.742 10.9773L10.493 7.38912C10.1738 7.03498 9.63131 7.00142 9.26992 7.31228L7.36188 8.95579C7.20977 9.10945 7.1192 9.31257 7.10689 9.52894C7.0937 9.74972 6.84223 14.9796 10.8799 19.0367C14.4023 22.5737 18.8145 22.8324 20.0297 22.8324C20.2073 22.8324 20.3163 22.8271 20.3454 22.8253C20.5608 22.813 20.763 22.722 20.9151 22.5684L22.5506 20.6511C22.861 20.2881 22.8258 19.7441 22.475 19.4226L18.9016 16.1586Z" fill="white"/>
</svg>