<svg width="36" height="36" viewBox="0 0 36 36" fill="none" xmlns="http://www.w3.org/2000/svg">
<g id="icon / twitter">
<rect width="36" height="36" rx="10" fill="#F1F5FB"/>
<path id="Vector" d="M26.637 13.4859C26.6522 13.6832 26.6522 13.8795 26.6522 14.0757C26.6522 20.0806 21.9088 27 13.2399 27C10.5691 27 8.08793 26.2546 6 24.96C6.3792 25.0018 6.74435 25.0164 7.13876 25.0164C9.34256 25.0164 11.3708 24.2992 12.9918 23.0757C10.919 23.034 9.18222 21.7258 8.58299 19.9261C8.87441 19.9678 9.16701 19.996 9.47364 19.996C9.89614 19.996 10.321 19.9396 10.7154 19.8415C8.55373 19.4197 6.93512 17.5918 6.93512 15.3838V15.3274C7.56361 15.6646 8.29274 15.8755 9.06518 15.9036C7.79534 15.0895 6.96321 13.6968 6.96321 12.1214C6.96321 11.2779 7.19611 10.5043 7.60457 9.82997C9.9254 12.5849 13.4143 14.3858 17.3256 14.5831C17.2531 14.2448 17.2086 13.8941 17.2086 13.5423C17.2086 11.0388 19.3106 9 21.9228 9C23.2804 9 24.5058 9.54805 25.3672 10.4344C26.4322 10.2371 27.4528 9.85704 28.3586 9.33718C28.0087 10.3916 27.2632 11.2779 26.2859 11.8406C27.2351 11.7414 28.155 11.4888 29 11.137C28.3586 12.0368 27.5569 12.8386 26.637 13.4859Z" fill="#4A5466"/>
</g>
</svg>
