<svg xmlns="http://www.w3.org/2000/svg" width="14" height="14" viewBox="0 0 14 14" fill="none">
  <g clip-path="url(#clip0_23_9980)">
    <path fill-rule="evenodd" clip-rule="evenodd" d="M6.99967 1.66634C4.05605 1.66634 1.66634 4.05605 1.66634 6.99967C1.66634 9.94329 4.05605 12.333 6.99967 12.333C9.94329 12.333 12.333 9.94329 12.333 6.99967C12.333 4.05605 9.94329 1.66634 6.99967 1.66634ZM0.333008 6.99967C0.333008 3.31967 3.31967 0.333008 6.99967 0.333008C10.6797 0.333008 13.6663 3.31967 13.6663 6.99967C13.6663 10.6797 10.6797 13.6663 6.99967 13.6663C3.31967 13.6663 0.333008 10.6797 0.333008 6.99967Z" fill="#D2D4D9"/>
    <path fill-rule="evenodd" clip-rule="evenodd" d="M6.33301 5.00033V3.66699H7.66634V5.00033H6.33301ZM6.33301 10.3337V6.33366H7.66634V10.3337H6.33301Z" fill="#D2D4D9"/>
  </g>
  <defs>
    <clipPath id="clip0_23_9980">
      <rect width="13.3333" height="13.3333" fill="white" transform="translate(0.333008 0.333008)"/>
    </clipPath>
  </defs>
</svg>