<svg xmlns="http://www.w3.org/2000/svg" width="32" height="32" viewBox="0 0 32 32" fill="none">
  <path fill-rule="evenodd" clip-rule="evenodd" d="M4.8446 6.50063L6.38621 4.51553C6.63879 4.19028 7.02748 4 7.43928 4H8.38067L7.75217 6.82827V9.02537C7.75217 9.25725 8.03307 9.37277 8.19621 9.20797C8.29778 9.10536 8.46357 9.10536 8.56514 9.20797L8.69493 9.33908C8.86797 9.51389 9.15039 9.51389 9.32343 9.33908L9.45321 9.20797C9.55479 9.10536 9.72058 9.10536 9.82215 9.20797C9.98528 9.37277 10.2662 9.25725 10.2662 9.02537V6.82827L9.63768 4H10.5783C10.9901 4 11.3788 4.19028 11.6313 4.51553L13.1729 6.50063C13.3546 6.73454 13.4532 7.02227 13.4532 7.31843V11.675C13.4532 12.4113 12.8562 13.0083 12.1199 13.0083H5.89768C5.1613 13.0083 4.56434 12.4113 4.56434 11.675V7.31843C4.56434 7.02227 4.66295 6.73454 4.8446 6.50063ZM15.4034 8.73419C15.3092 8.37522 15.4705 8.15272 15.9649 8.15272L18.6408 8.15234C19.137 8.15234 19.6848 8.41156 19.8694 8.73382L20.8906 10.347H22.027C23.0614 10.347 23.8962 11.1965 23.8962 12.2512C23.8962 12.8979 23.579 13.4657 23.0983 13.8098L25.8403 18.1115C25.9599 18.3181 26.246 18.5187 26.4768 18.581C28.7211 19.1773 30.3765 21.2292 30.3765 23.67H29.0073C29.0218 23.8071 29.0292 23.9463 29.0292 24.0872C29.0314 26.2484 27.2852 28.0006 25.1335 28.0006C22.9819 28.0006 21.2378 26.2484 21.2378 24.0872C21.2378 23.9463 21.2453 23.8071 21.2597 23.67H10.5572C10.5716 23.8071 10.579 23.9463 10.579 24.0872C10.579 26.2484 8.83463 28.0006 6.683 28.0006C4.53137 28.0006 2.78733 26.2484 2.78733 24.0872C2.78733 23.8981 2.80067 23.7122 2.82646 23.5304C1.77332 23.1714 1.05932 22.1661 1.43566 21.0518C1.86076 19.7931 2.58427 18.6727 3.5199 17.7715V15.852C3.5199 15.2198 4.11614 14.7121 4.85637 14.7121H12.8751C13.6117 14.7121 14.0599 15.2357 14.2098 15.8442L15.348 20.4486C15.4074 20.6955 15.6286 20.8702 15.8826 20.8702H19.1222C19.3858 20.8702 19.628 20.7189 19.7472 20.4819L20.5893 18.8065C20.7141 18.5573 20.7658 18.2647 20.6794 17.9996L17.9567 9.68242H16.6279C15.9376 9.68242 15.5783 9.38909 15.4034 8.73419Z" fill="#A5A9B2"/>
</svg>