<svg xmlns="http://www.w3.org/2000/svg" width="56" height="56" viewBox="0 0 56 56" fill="none">
  <path fill-rule="evenodd" clip-rule="evenodd" d="M14.6537 31.3045L17.7174 22.1672H21.3014L16.2019 34.9982H12.514V35.0005L9.68391 23.9869C7.80705 22.8657 6.10547 22.3631 6.10547 22.3631H11.2855C12.6108 22.3631 13.1206 23.5636 13.1206 23.5636L14.2476 29.103C14.222 29.0232 14.195 28.9442 14.1667 28.8661C14.399 30.0396 14.6537 31.3045 14.6537 31.3045ZM23.987 35.0005H20.6375L22.6209 22.1672H26.0124L23.987 35.0005ZM40.8185 22.1672H44.343L46.9377 35.0005H43.8892L43.5322 33.1677H39.3369L38.6509 35.0005H35.3235L40.8185 22.1672ZM42.089 25.8667L40.2655 30.7165H43.0434L42.089 25.8667ZM33.0112 24.6743C31.3452 24.6743 30.7642 25.2005 30.7642 25.9075C30.7642 26.4627 31.5101 26.8314 32.4043 27.2735C33.7427 27.9351 35.4134 28.761 35.4134 30.622C35.4134 33.2027 32.0814 34.9993 29.6792 34.9993C27.2829 34.9993 26.0427 34.2923 26.0427 34.2923L26.6202 31.707C26.6202 31.707 27.9 32.4175 29.839 32.4175C31.7722 32.4175 32.0417 31.6323 32.0417 31.2928C32.0417 30.4658 31.2326 30.0762 30.29 29.6222C28.9748 28.9888 27.3995 28.2301 27.3995 25.9833C27.3995 23.8507 29.216 22.166 32.7382 22.166C34.2934 22.166 35.8777 22.7668 35.8777 22.7668L35.334 25.4607C35.334 25.4607 34.0939 24.6743 33.0112 24.6743Z" fill="white"/>
</svg>